<svg xmlns="http://www.w3.org/2000/svg" width="2835" height="1510" viewBox="0 0 2835 1510" version="1.1"><path d="M 241.180 429.904 C 241.356 430.952, 330.150 514.732, 438.500 616.083 C 546.850 717.433, 669.848 832.564, 711.828 871.928 C 753.808 911.293, 789.982 944.962, 792.214 946.750 L 796.271 950 834.529 950 C 870.042 950, 872.834 949.874, 873.458 948.250 C 873.920 947.047, 873.410 946.031, 871.829 945 C 870.564 944.175, 817.547 894.896, 754.014 835.490 C 690.481 776.085, 569.200 662.720, 484.500 583.567 C 399.800 504.415, 327.726 437.032, 324.337 433.827 L 318.173 428 279.517 428 C 242.063 428, 240.871 428.059, 241.180 429.904 M 393.006 429.493 C 391.971 430.740, 392.645 431.768, 397.104 435.743 C 401.581 439.733, 527.591 557.446, 886.026 892.470 C 915.466 919.986, 941.455 944.188, 943.779 946.250 L 948.006 950 1027.503 950 C 1073.353 950, 1107 949.623, 1107 949.109 C 1107 947.975, 1089.059 930.969, 1014 860.959 C 951.093 802.284, 654.428 524.717, 591.529 465.686 C 571.713 447.089, 553.830 431.001, 551.790 429.936 C 548.214 428.070, 545.291 428, 471.162 428 C 404.180 428, 394.085 428.193, 393.006 429.493 M 799.678 591.656 C 797.503 593.830, 792.718 589.233, 964.500 749.993 C 1021.150 803.009, 1091.266 868.686, 1120.314 895.942 C 1149.362 923.199, 1174.970 946.512, 1177.221 947.750 L 1181.315 950 1338.157 950 C 1424.421 950, 1495 949.638, 1495 949.196 C 1495 947.782, 1489.273 942.922, 1450.500 911.435 C 1401.585 871.711, 1335.685 817.606, 1302.052 789.557 C 1268.375 761.470, 1271.251 763.824, 1156.500 670.439 L 1059.500 591.500 929.928 591.239 C 858.663 591.095, 800.050 591.283, 799.678 591.656 M 698.286 1404.396 C 687.927 1407.769, 679.777 1414.980, 675.135 1424.880 C 672.747 1429.973, 672.500 1431.624, 672.500 1442.500 C 672.500 1453.426, 672.740 1455.012, 675.180 1460.218 C 678.743 1467.820, 685.635 1475.002, 692.722 1478.499 C 697.248 1480.732, 700.303 1481.448, 706.821 1481.804 C 715.521 1482.279, 725.515 1480.357, 729.418 1477.458 C 731.297 1476.062, 731.299 1475.923, 729.486 1470.590 L 727.635 1465.145 723.851 1467.076 C 711.270 1473.494, 697.295 1470.786, 690.364 1460.586 C 681.646 1447.755, 684.698 1427.043, 696.524 1418.785 C 703.687 1413.782, 716.963 1413.379, 723.179 1417.974 C 724.686 1419.089, 726.187 1420, 726.515 1420 C 727.016 1420, 732 1409.638, 732 1408.595 C 732 1408.403, 729.638 1407.208, 726.750 1405.939 C 720.226 1403.073, 704.901 1402.242, 698.286 1404.396 M 1399.286 1404.451 C 1389.067 1407.644, 1380.793 1414.945, 1376.135 1424.880 C 1373.747 1429.973, 1373.500 1431.624, 1373.500 1442.500 C 1373.500 1453.426, 1373.740 1455.012, 1376.180 1460.218 C 1379.727 1467.785, 1386.931 1475.325, 1393.874 1478.736 C 1398.984 1481.246, 1400.510 1481.500, 1410.500 1481.500 C 1419.934 1481.499, 1422.247 1481.162, 1426.750 1479.127 C 1429.638 1477.821, 1432 1476.511, 1432 1476.215 C 1432 1475.918, 1431.260 1473.328, 1430.356 1470.459 L 1428.711 1465.243 1423.122 1467.802 C 1416.799 1470.697, 1407.955 1471.266, 1401.861 1469.170 C 1397.036 1467.510, 1391.297 1461.802, 1388.729 1456.108 C 1385.666 1449.316, 1385.759 1436.380, 1388.922 1429.243 C 1393.127 1419.756, 1401.044 1414.753, 1411.753 1414.814 C 1416.610 1414.842, 1419.091 1415.439, 1422.671 1417.440 C 1425.219 1418.864, 1427.407 1419.910, 1427.532 1419.765 C 1427.657 1419.619, 1428.940 1417.149, 1430.384 1414.276 L 1433.008 1409.051 1430.552 1407.442 C 1424.012 1403.157, 1408.252 1401.649, 1399.286 1404.451 M 1737.684 1404.449 C 1730.895 1406.870, 1726.595 1411.543, 1724.950 1418.285 C 1722.447 1428.550, 1726.906 1438.684, 1736.195 1443.843 C 1750.562 1451.823, 1753.283 1453.646, 1754.588 1456.171 C 1760.871 1468.320, 1746.265 1475.379, 1732.382 1466.904 C 1730.667 1465.857, 1728.987 1465, 1728.649 1465 C 1728.310 1465, 1726.855 1467.326, 1725.415 1470.169 L 1722.795 1475.337 1725.145 1477.109 C 1728.991 1480.010, 1738.045 1482.382, 1745.092 1482.335 C 1759.250 1482.241, 1768.031 1474.877, 1768.823 1462.433 C 1769.548 1451.054, 1765.894 1446.230, 1749.246 1436.586 C 1744.706 1433.957, 1740.094 1430.663, 1738.996 1429.268 C 1736.288 1425.825, 1736.333 1419.699, 1739.087 1417.134 C 1742.986 1413.501, 1751.731 1413.628, 1757.487 1417.400 C 1758.831 1418.280, 1760.128 1419, 1760.370 1419 C 1761.457 1419, 1766.029 1409.856, 1765.428 1408.883 C 1765.058 1408.284, 1762.448 1406.720, 1759.627 1405.407 C 1753.689 1402.642, 1743.943 1402.216, 1737.684 1404.449 M 1868.286 1404.394 C 1857.924 1407.771, 1849.777 1414.980, 1845.135 1424.880 C 1842.746 1429.975, 1842.500 1431.623, 1842.500 1442.521 C 1842.500 1454.081, 1842.626 1454.797, 1845.774 1461.193 C 1852.548 1474.952, 1864.402 1482.247, 1880 1482.257 C 1893.343 1482.266, 1903.566 1477.446, 1910.638 1467.813 C 1916.632 1459.646, 1918.363 1453.946, 1918.324 1442.500 C 1918.280 1429.610, 1915.991 1423.264, 1908.447 1415.116 C 1900.866 1406.928, 1893.522 1403.712, 1881.500 1403.317 C 1875.802 1403.130, 1870.954 1403.525, 1868.286 1404.394 M 2471.863 1404.512 C 2460.776 1408.057, 2451.423 1417.724, 2447.859 1429.321 C 2445.173 1438.059, 2445.616 1450.667, 2448.908 1459.202 C 2454.918 1474.782, 2473.034 1484.810, 2490.182 1482.048 C 2508.546 1479.091, 2521.050 1465.566, 2522.619 1446.963 C 2524.164 1428.650, 2516.215 1413.574, 2501.217 1406.367 C 2496.446 1404.074, 2493.928 1403.571, 2486 1403.324 C 2479.612 1403.126, 2474.981 1403.515, 2471.863 1404.512 M 2748.764 1403.937 C 2744.004 1405.472, 2739.172 1408.985, 2737.011 1412.481 C 2732.556 1419.690, 2733.464 1431.467, 2738.991 1438.173 C 2740.525 1440.034, 2745.925 1443.795, 2750.991 1446.529 C 2761.892 1452.413, 2766 1456.533, 2766 1461.580 C 2766 1470.959, 2753.823 1473.650, 2742.103 1466.862 C 2738.333 1464.678, 2738.263 1464.717, 2734.917 1470.825 L 2732.547 1475.150 2735.024 1477.053 C 2741.957 1482.381, 2757.664 1484.036, 2766 1480.317 C 2775.205 1476.211, 2779.760 1468.263, 2778.776 1458.025 C 2778.116 1451.147, 2774.435 1446.257, 2765.900 1440.917 C 2750.760 1431.443, 2749.474 1430.448, 2747.704 1426.827 C 2746.078 1423.501, 2746.048 1422.822, 2747.379 1419.636 C 2748.556 1416.818, 2749.660 1415.899, 2752.924 1415.020 C 2757.344 1413.830, 2763.667 1414.953, 2767.443 1417.598 C 2768.544 1418.369, 2769.756 1419, 2770.137 1419 C 2771.262 1419, 2776.033 1409.862, 2775.423 1408.876 C 2775.116 1408.378, 2772.982 1407.003, 2770.682 1405.820 C 2766.067 1403.446, 2753.606 1402.375, 2748.764 1403.937 M 18.153 1442.287 C 8.169 1463.345, 0 1480.895, 0 1481.287 C 0 1481.679, 3.066 1482, 6.812 1482 L 13.625 1482 16.631 1474.750 L 19.638 1467.500 37.069 1467.244 L 54.500 1466.989 57.536 1474.244 L 60.571 1481.500 67.884 1481.796 C 72.490 1481.982, 75.068 1481.718, 74.849 1481.083 C 72.862 1475.334, 38.223 1404.060, 37.403 1404.034 C 36.799 1404.015, 28.137 1421.229, 18.153 1442.287 M 144.238 1442.634 L 144.500 1481.500 153.500 1481.794 C 165.087 1482.172, 177.865 1480.596, 183.534 1478.088 C 189.820 1475.307, 198.366 1466.902, 200.903 1461.005 C 210.228 1439.327, 202.094 1414.072, 183.500 1406.971 C 178.360 1405.008, 175.098 1404.614, 160.738 1404.224 L 143.976 1403.769 144.238 1442.634 M 267.464 1405.886 C 269.459 1412.173, 302.057 1481.500, 303.018 1481.500 C 303.975 1481.500, 336.552 1412.138, 338.547 1405.853 C 339.080 1404.171, 338.497 1404, 332.238 1404 L 325.341 1404 315.539 1426.750 C 310.148 1439.263, 305.075 1450.804, 304.267 1452.398 C 302.802 1455.284, 302.753 1455.196, 291.754 1429.648 L 280.713 1404 273.789 1404 C 267.460 1404, 266.917 1404.162, 267.464 1405.886 M 427.682 1408.684 C 420.625 1422.735, 394 1479.779, 394 1480.846 C 394 1481.745, 395.858 1482.009, 400.684 1481.796 L 407.368 1481.500 410.381 1474.228 L 413.394 1466.955 430.791 1467.228 L 448.189 1467.500 451.234 1474.750 L 454.279 1482 461.140 1482 C 465.004 1482, 468 1481.567, 468 1481.009 C 468 1479.254, 432.076 1404.525, 431.071 1404.190 C 430.537 1404.012, 429.013 1406.034, 427.682 1408.684 M 538 1442.927 L 538 1482 543.983 1482 L 549.965 1482 550.233 1457.603 L 550.500 1433.207 572.318 1457.603 C 584.318 1471.021, 594.556 1482, 595.068 1482 C 595.628 1482, 596 1466.426, 596 1443 L 596 1404 589.387 1404 L 582.773 1404 583.150 1428.430 C 583.358 1441.867, 583.470 1452.780, 583.400 1452.680 C 580.858 1449.090, 540.260 1404.399, 539.339 1404.177 C 538.238 1403.911, 538 1410.794, 538 1442.927 M 806 1443 L 806 1482 825 1482 L 844 1482 844 1476 L 844 1470 831.500 1470 L 819 1470 819 1458.500 L 819 1447 827.500 1447 L 836 1447 836 1441 L 836 1435 827.500 1435 L 819 1435 819 1425 L 819 1415 829.500 1415 L 840 1415 840 1409.500 L 840 1404 823 1404 L 806 1404 806 1443 M 919 1442.883 L 919 1482 928.750 1481.969 C 954.399 1481.888, 966.555 1476.852, 973.728 1463.334 C 982.573 1446.664, 979.895 1424.532, 967.669 1413.262 C 960.319 1406.487, 954.123 1404.760, 935.250 1404.226 L 919 1403.765 919 1442.883 M 1138 1409.500 L 1138 1415 1148 1415 L 1158 1415 1158 1448.500 L 1158 1482 1164 1482 L 1170 1482 1170 1448.500 L 1170 1415 1180 1415 L 1190 1415 1190 1409.500 L 1190 1404 1164 1404 L 1138 1404 1138 1409.500 M 1264 1443 L 1264 1482 1282.500 1482 L 1301 1482 1301 1476 L 1301 1470 1288.500 1470 L 1276 1470 1276 1458.500 L 1276 1447 1285 1447 L 1294 1447 1294 1441 L 1294 1435 1285 1435 L 1276 1435 1276 1425 L 1276 1415 1287 1415 L 1298 1415 1298 1409.500 L 1298 1404 1281 1404 L 1264 1404 1264 1443 M 1507 1443.048 L 1507 1482.095 1513.250 1481.798 L 1519.500 1481.500 1519.773 1463.750 L 1520.046 1446 1532.500 1446 L 1544.954 1446 1545.227 1463.750 L 1545.500 1481.500 1551.750 1481.798 L 1558 1482.095 1558 1443.048 L 1558 1404 1551.500 1404 L 1545 1404 1545 1419.500 L 1545 1435 1532.500 1435 L 1520 1435 1520 1419.500 L 1520 1404 1513.500 1404 L 1507 1404 1507 1443.048 M 1995 1443 L 1995 1482 2012 1482 L 2029 1482 2029 1476 L 2029 1470 2018 1470 L 2007 1470 2007 1437 L 2007 1404 2001 1404 L 1995 1404 1995 1443 M 2103.207 1433.750 C 2103.524 1461.486, 2103.689 1463.805, 2105.649 1468 C 2110.292 1477.942, 2117.795 1482.355, 2130 1482.326 C 2146.194 1482.286, 2154.628 1473.984, 2156.996 1455.751 C 2157.514 1451.763, 2157.952 1438.487, 2157.969 1426.250 L 2158 1404 2151.571 1404 L 2145.141 1404 2144.813 1431.750 C 2144.539 1454.963, 2144.214 1460.100, 2142.826 1463.172 C 2140.473 1468.381, 2136.806 1470.467, 2130 1470.467 C 2123.235 1470.467, 2120.049 1468.661, 2117.399 1463.325 C 2115.698 1459.899, 2115.467 1456.606, 2115.179 1431.750 L 2114.859 1404 2108.863 1404 L 2102.866 1404 2103.207 1433.750 M 2229 1409.500 L 2229 1415 2238.500 1415 L 2248 1415 2248 1448.548 L 2248 1482.095 2254.250 1481.798 L 2260.500 1481.500 2260.763 1448.250 L 2261.027 1415 2270.513 1415 L 2280 1415 2280 1409.500 L 2280 1404 2254.500 1404 L 2229 1404 2229 1409.500 M 2356 1443 L 2356 1482 2362 1482 L 2368 1482 2368 1443 L 2368 1404 2362 1404 L 2356 1404 2356 1443 M 2599 1443.048 L 2599 1482.095 2605.250 1481.798 L 2611.500 1481.500 2611.500 1457.199 C 2611.500 1435.446, 2611.657 1433.090, 2613 1434.738 C 2619.074 1442.189, 2655.374 1482, 2656.094 1482 C 2656.620 1482, 2657 1465.623, 2657 1443 L 2657 1404 2651.017 1404 L 2645.035 1404 2644.767 1428.375 L 2644.500 1452.750 2623 1428.406 C 2611.175 1415.017, 2600.938 1404.049, 2600.250 1404.031 C 2599.271 1404.007, 2599 1412.459, 2599 1443.048 M 1874.780 1414.916 C 1863.492 1417.221, 1856.093 1426.806, 1855.240 1440.232 C 1854.696 1448.797, 1855.871 1453.828, 1859.898 1460.178 C 1869.632 1475.528, 1893.713 1474.058, 1902.238 1457.595 C 1905.158 1451.955, 1905.878 1438.161, 1903.609 1431.329 C 1899.598 1419.251, 1887.442 1412.331, 1874.780 1414.916 M 2477.667 1415.396 C 2465.065 1418.882, 2457.793 1431.177, 2459.376 1446.322 C 2460.559 1457.640, 2466.743 1466.361, 2475.765 1469.436 C 2488.647 1473.825, 2501.627 1468.159, 2507.031 1455.788 C 2510.268 1448.378, 2510.274 1436.635, 2507.044 1429.243 C 2502.077 1417.872, 2489.738 1412.057, 2477.667 1415.396 M 157 1442.459 L 157 1470.199 165.750 1469.849 C 176.198 1469.432, 180.939 1467.360, 185.723 1461.120 C 189.790 1455.814, 191.340 1450.381, 191.318 1441.500 C 191.306 1436.501, 190.666 1433.033, 189.078 1429.368 C 184.929 1419.790, 178.675 1416.080, 165.250 1415.237 L 157 1414.718 157 1442.459 M 931 1442.359 L 931 1470 938.374 1470 C 951.335 1470, 958.659 1465.744, 963.124 1455.618 C 965.791 1449.571, 966.306 1436.854, 964.134 1430.664 C 960.783 1421.113, 952.675 1416.070, 939.332 1415.238 L 931 1414.718 931 1442.359 M 31.643 1440.778 C 28.534 1447.775, 25.992 1453.838, 25.995 1454.250 C 25.998 1454.662, 31.175 1455, 37.500 1455 C 43.825 1455, 49 1454.875, 49 1454.722 C 49 1454.570, 46.367 1448.508, 43.148 1441.251 L 37.296 1428.057 31.643 1440.778 M 424.895 1441.148 C 421.928 1447.830, 419.350 1453.680, 419.167 1454.148 C 418.983 1454.617, 424.046 1455, 430.417 1455 C 436.788 1455, 442 1454.685, 442 1454.299 C 442 1452.956, 431.495 1429.048, 430.895 1429.024 C 430.562 1429.011, 427.862 1434.467, 424.895 1441.148" stroke="none" fill="#54141c" fill-rule="evenodd"/><path d="M 325.297 81.804 L 238.095 163.500 670.297 164.057 C 992.707 164.473, 1105.294 164.915, 1113.500 165.797 C 1154.620 170.218, 1173.857 183.713, 1180.728 212.957 C 1182.342 219.829, 1182.500 227.260, 1182.500 296.500 C 1182.500 366.316, 1182.353 373.127, 1180.691 380.208 C 1174.427 406.903, 1155.953 420.209, 1117 426.084 C 1110.349 427.087, 1055.830 427.489, 866.333 427.933 C 733.141 428.245, 623.791 428.880, 623.333 429.344 C 622.875 429.809, 624.985 432.509, 628.023 435.344 C 631.060 438.180, 669.807 474.310, 714.127 515.634 L 794.708 590.769 985.104 591.272 C 1178.469 591.784, 1217.047 591.365, 1238.500 588.522 C 1292.644 581.346, 1329.340 565.918, 1354.755 539.645 C 1359.621 534.615, 1366.015 526.924, 1368.964 522.554 C 1379.386 507.108, 1388.300 485.243, 1392.835 464 C 1397.474 442.271, 1397.500 441.313, 1397.500 295 C 1397.500 167.566, 1397.358 155.510, 1395.722 144.112 C 1389.418 100.198, 1375.790 70.376, 1351.351 47.012 C 1327.089 23.818, 1297.656 11.443, 1246 2.718 L 1233.500 0.607 823 0.357 L 412.500 0.107 325.297 81.804 M 1496.777 285.250 C 1496.654 442.137, 1496.542 592.421, 1496.527 619.214 C 1496.502 664.665, 1496.620 668.048, 1498.286 669.714 C 1499.972 671.401, 1505.699 671.517, 1601.786 671.802 C 1700.591 672.095, 1713.952 671.884, 1717.032 669.980 C 1718.314 669.188, 1718.563 637.713, 1719 421.448 L 1719.500 173.823 1721.861 171.912 C 1724.164 170.047, 1728.245 170, 1889.361 170.015 C 1986.118 170.025, 2060.711 170.437, 2069.500 171.011 C 2189.726 178.863, 2269.810 222.304, 2312.852 303.014 C 2331.216 337.449, 2343.347 382.608, 2347.055 430.334 C 2348.757 452.256, 2347.775 495.053, 2345.031 518.500 C 2333.583 616.309, 2293.565 680.869, 2220.775 718.961 C 2178.329 741.173, 2114.144 757.958, 2045 764.926 C 2002.245 769.235, 2001.394 769.246, 1633.212 769.885 L 1278.925 770.500 1300.712 788.574 C 1334.101 816.273, 1407.988 876.909, 1452.709 913.313 C 1474.824 931.315, 1493.554 946.953, 1494.332 948.064 L 1495.747 950.084 1780.624 949.703 C 1979.473 949.437, 2070.332 948.980, 2081.500 948.187 C 2175.033 941.551, 2231.797 932.251, 2284.723 914.895 C 2331.293 899.623, 2373.866 876.406, 2414 844.395 C 2431.280 830.612, 2461.596 800.306, 2475.224 783.191 C 2501.048 750.762, 2521.919 715.209, 2538.651 675.147 C 2572.648 593.744, 2585.120 503.685, 2575.437 409.500 C 2565.233 310.247, 2537.592 236.348, 2486.604 172 C 2473.756 155.785, 2444.089 126.207, 2427.191 112.765 C 2350.053 51.402, 2250.703 14.644, 2132 3.547 C 2095.354 0.121, 2085.647 0.020, 1791.750 0.010 L 1497 0 1496.777 285.250 M 1323 1108.500 C 1323 1109.325, 1322.550 1110, 1322 1110 C 1321.450 1110, 1321 1110.900, 1321 1112 C 1321 1113.100, 1320.550 1114, 1320 1114 C 1319.450 1114, 1319 1115.350, 1319 1117 C 1319 1118.650, 1318.550 1120, 1318 1120 C 1317.450 1120, 1317 1120.900, 1317 1122 C 1317 1123.100, 1316.550 1124, 1316 1124 C 1315.450 1124, 1315 1125.125, 1315 1126.500 C 1315 1127.875, 1314.550 1129, 1314 1129 C 1313.450 1129, 1313 1130.350, 1313 1132 C 1313 1133.650, 1312.550 1135, 1312 1135 C 1311.450 1135, 1311 1135.900, 1311 1137 C 1311 1138.100, 1310.609 1139, 1310.132 1139 C 1309.654 1139, 1309.008 1140.903, 1308.696 1143.228 C 1308.384 1145.554, 1307.650 1147.617, 1307.065 1147.812 C 1306.479 1148.007, 1306 1149.479, 1306 1151.083 C 1306 1152.688, 1305.550 1154, 1305 1154 C 1304.450 1154, 1304 1154.900, 1304 1156 C 1304 1157.100, 1303.550 1158, 1303 1158 C 1302.450 1158, 1302 1159.350, 1302 1161 C 1302 1162.650, 1301.550 1164, 1301 1164 C 1300.450 1164, 1300 1164.675, 1300 1165.500 C 1300 1166.325, 1299.550 1167, 1299 1167 C 1298.450 1167, 1298 1168.350, 1298 1170 C 1298 1171.650, 1297.550 1173, 1297 1173 C 1296.450 1173, 1296 1173.900, 1296 1175 C 1296 1176.100, 1295.550 1177, 1295 1177 C 1294.450 1177, 1294 1178.350, 1294 1180 C 1294 1181.650, 1293.550 1183, 1293 1183 C 1292.450 1183, 1292 1184.125, 1292 1185.500 C 1292 1186.875, 1291.565 1188, 1291.034 1188 C 1290.503 1188, 1289.770 1190.250, 1289.406 1193 C 1289.041 1195.750, 1288.350 1198, 1287.871 1198 C 1287.392 1198, 1287 1198.900, 1287 1200 C 1287 1201.100, 1286.550 1202, 1286 1202 C 1285.450 1202, 1285 1203.125, 1285 1204.500 C 1285 1205.875, 1284.550 1207, 1284 1207 C 1283.450 1207, 1283 1207.900, 1283 1209 C 1283 1210.100, 1282.550 1211, 1282 1211 C 1281.450 1211, 1281 1212.350, 1281 1214 C 1281 1215.650, 1280.550 1217, 1280 1217 C 1279.450 1217, 1279 1217.900, 1279 1219 C 1279 1220.100, 1278.550 1221, 1278 1221 C 1277.450 1221, 1277 1222.125, 1277 1223.500 C 1277 1224.875, 1276.550 1226, 1276 1226 C 1275.450 1226, 1275 1227.350, 1275 1229 C 1275 1230.650, 1274.550 1232, 1274 1232 C 1273.450 1232, 1273 1232.900, 1273 1234 C 1273 1235.100, 1272.609 1236, 1272.132 1236 C 1271.654 1236, 1271.008 1237.903, 1270.696 1240.228 C 1270.384 1242.554, 1269.650 1244.617, 1269.065 1244.812 C 1268.479 1245.007, 1268 1246.479, 1268 1248.083 C 1268 1249.688, 1267.550 1251, 1267 1251 C 1266.450 1251, 1266 1251.900, 1266 1253 C 1266 1254.100, 1265.550 1255, 1265 1255 C 1264.450 1255, 1264 1256.350, 1264 1258 C 1264 1259.650, 1263.550 1261, 1263 1261 C 1262.450 1261, 1262 1261.675, 1262 1262.500 C 1262 1263.325, 1261.550 1264, 1261 1264 C 1260.450 1264, 1260 1265.350, 1260 1267 C 1260 1268.650, 1259.550 1270, 1259 1270 C 1258.450 1270, 1258 1270.900, 1258 1272 C 1258 1273.100, 1257.550 1274, 1257 1274 C 1256.450 1274, 1256 1275.350, 1256 1277 C 1256 1278.650, 1255.550 1280, 1255 1280 C 1254.450 1280, 1254 1281.125, 1254 1282.500 C 1254 1283.875, 1253.565 1285, 1253.034 1285 C 1252.503 1285, 1251.770 1287.250, 1251.406 1290 C 1251.041 1292.750, 1250.350 1295, 1249.871 1295 C 1249.392 1295, 1249 1295.900, 1249 1297 C 1249 1298.100, 1248.550 1299, 1248 1299 C 1247.450 1299, 1247 1300.125, 1247 1301.500 C 1247 1302.875, 1246.550 1304, 1246 1304 C 1245.450 1304, 1245 1304.900, 1245 1306 C 1245 1307.100, 1244.550 1308, 1244 1308 C 1243.450 1308, 1243 1309.350, 1243 1311 C 1243 1312.650, 1242.550 1314, 1242 1314 C 1241.450 1314, 1241 1314.900, 1241 1316 C 1241 1317.100, 1240.550 1318, 1240 1318 C 1239.450 1318, 1239 1319.125, 1239 1320.500 C 1239 1321.875, 1238.550 1323, 1238 1323 C 1237.450 1323, 1237 1324.350, 1237 1326 C 1237 1327.650, 1236.550 1329, 1236 1329 C 1235.450 1329, 1235 1329.450, 1235 1330 C 1235 1330.638, 1243.524 1331, 1258.571 1331 C 1283.183 1331, 1285 1330.695, 1285 1326.571 C 1285 1325.707, 1285.450 1325, 1286 1325 C 1286.550 1325, 1287 1323.650, 1287 1322 C 1287 1320.350, 1287.399 1319, 1287.886 1319 C 1288.374 1319, 1289.077 1316.975, 1289.448 1314.500 C 1289.819 1312.025, 1290.545 1310, 1291.061 1310 C 1291.578 1310, 1292 1308.843, 1292 1307.429 C 1292 1301.961, 1291.711 1302, 1332.429 1302 C 1369.333 1302, 1370 1302.035, 1370 1304 C 1370 1305.100, 1370.450 1306, 1371 1306 C 1371.550 1306, 1372 1307.350, 1372 1309 C 1372 1310.650, 1372.450 1312, 1373 1312 C 1373.550 1312, 1374 1312.900, 1374 1314 C 1374 1315.100, 1374.450 1316, 1375 1316 C 1375.550 1316, 1376 1317.125, 1376 1318.500 C 1376 1319.875, 1376.450 1321, 1377 1321 C 1377.550 1321, 1378 1322.350, 1378 1324 C 1378 1325.650, 1378.450 1327, 1379 1327 C 1379.550 1327, 1380 1327.900, 1380 1329 C 1380 1330.943, 1380.667 1331, 1403.500 1331 L 1427 1331 1427 1328 C 1427 1326.350, 1426.550 1325, 1426 1325 C 1425.450 1325, 1425 1323.688, 1425 1322.083 C 1425 1320.479, 1424.521 1319.007, 1423.935 1318.812 C 1423.350 1318.617, 1422.616 1316.554, 1422.304 1314.228 C 1421.992 1311.903, 1421.346 1310, 1420.868 1310 C 1420.391 1310, 1420 1309.100, 1420 1308 C 1420 1306.900, 1419.550 1306, 1419 1306 C 1418.450 1306, 1418 1304.650, 1418 1303 C 1418 1301.350, 1417.550 1300, 1417 1300 C 1416.450 1300, 1416 1299.325, 1416 1298.500 C 1416 1297.675, 1415.550 1297, 1415 1297 C 1414.450 1297, 1414 1295.650, 1414 1294 C 1414 1292.350, 1413.550 1291, 1413 1291 C 1412.450 1291, 1412 1289.650, 1412 1288 C 1412 1286.350, 1411.550 1285, 1411 1285 C 1410.450 1285, 1410 1284.100, 1410 1283 C 1410 1281.900, 1409.550 1281, 1409 1281 C 1408.450 1281, 1408 1279.875, 1408 1278.500 C 1408 1277.125, 1407.550 1276, 1407 1276 C 1406.450 1276, 1406 1275.100, 1406 1274 C 1406 1272.900, 1405.608 1272, 1405.129 1272 C 1404.650 1272, 1403.959 1269.750, 1403.594 1267 C 1403.230 1264.250, 1402.497 1262, 1401.966 1262 C 1401.435 1262, 1401 1260.875, 1401 1259.500 C 1401 1258.125, 1400.550 1257, 1400 1257 C 1399.450 1257, 1399 1256.100, 1399 1255 C 1399 1253.900, 1398.550 1253, 1398 1253 C 1397.450 1253, 1397 1251.650, 1397 1250 C 1397 1248.350, 1396.550 1247, 1396 1247 C 1395.450 1247, 1395 1245.875, 1395 1244.500 C 1395 1243.125, 1394.550 1242, 1394 1242 C 1393.450 1242, 1393 1241.100, 1393 1240 C 1393 1238.900, 1392.550 1238, 1392 1238 C 1391.450 1238, 1391 1236.650, 1391 1235 C 1391 1233.350, 1390.550 1232, 1390 1232 C 1389.450 1232, 1389 1231.100, 1389 1230 C 1389 1228.900, 1388.550 1228, 1388 1228 C 1387.450 1228, 1387 1226.875, 1387 1225.500 C 1387 1224.125, 1386.565 1223, 1386.034 1223 C 1385.503 1223, 1384.770 1220.750, 1384.406 1218 C 1384.041 1215.250, 1383.350 1213, 1382.871 1213 C 1382.392 1213, 1382 1211.650, 1382 1210 C 1382 1208.350, 1381.550 1207, 1381 1207 C 1380.450 1207, 1380 1206.325, 1380 1205.500 C 1380 1204.675, 1379.550 1204, 1379 1204 C 1378.450 1204, 1378 1202.650, 1378 1201 C 1378 1199.350, 1377.550 1198, 1377 1198 C 1376.450 1198, 1376 1197.100, 1376 1196 C 1376 1194.900, 1375.550 1194, 1375 1194 C 1374.450 1194, 1374 1192.650, 1374 1191 C 1374 1189.350, 1373.550 1188, 1373 1188 C 1372.450 1188, 1372 1187.325, 1372 1186.500 C 1372 1185.675, 1371.550 1185, 1371 1185 C 1370.450 1185, 1370 1183.650, 1370 1182 C 1370 1180.350, 1369.550 1179, 1369 1179 C 1368.450 1179, 1368 1178.100, 1368 1177 C 1368 1175.900, 1367.602 1175, 1367.115 1175 C 1366.629 1175, 1365.921 1172.525, 1365.543 1169.500 C 1365.165 1166.475, 1364.438 1164, 1363.928 1164 C 1363.418 1164, 1363 1163.100, 1363 1162 C 1363 1160.900, 1362.550 1160, 1362 1160 C 1361.450 1160, 1361 1158.650, 1361 1157 C 1361 1155.350, 1360.550 1154, 1360 1154 C 1359.450 1154, 1359 1153.100, 1359 1152 C 1359 1150.900, 1358.550 1150, 1358 1150 C 1357.450 1150, 1357 1148.875, 1357 1147.500 C 1357 1146.125, 1356.550 1145, 1356 1145 C 1355.450 1145, 1355 1144.100, 1355 1143 C 1355 1141.900, 1354.550 1141, 1354 1141 C 1353.450 1141, 1353 1139.650, 1353 1138 C 1353 1136.350, 1352.550 1135, 1352 1135 C 1351.450 1135, 1351 1134.100, 1351 1133 C 1351 1131.900, 1350.550 1131, 1350 1131 C 1349.450 1131, 1349 1129.875, 1349 1128.500 C 1349 1127.125, 1348.608 1126, 1348.129 1126 C 1347.650 1126, 1346.959 1123.750, 1346.594 1121 C 1346.230 1118.250, 1345.497 1116, 1344.966 1116 C 1344.435 1116, 1344 1114.650, 1344 1113 C 1344 1111.350, 1343.550 1110, 1343 1110 C 1342.450 1110, 1342 1109.325, 1342 1108.500 C 1342 1107.272, 1340.278 1107, 1332.500 1107 C 1324.722 1107, 1323 1107.272, 1323 1108.500 M 1553 1107.853 C 1553 1108.323, 1549.513 1109.001, 1545.250 1109.361 C 1540.987 1109.721, 1537.350 1110.462, 1537.167 1111.008 C 1536.983 1111.553, 1535.746 1112, 1534.417 1112 C 1533.088 1112, 1532 1112.450, 1532 1113 C 1532 1113.550, 1531.100 1114, 1530 1114 C 1528.900 1114, 1528 1114.450, 1528 1115 C 1528 1115.550, 1527.100 1116, 1526 1116 C 1524.900 1116, 1524 1116.450, 1524 1117 C 1524 1117.550, 1523.100 1118, 1522 1118 C 1520.900 1118, 1520 1118.450, 1520 1119 C 1520 1119.550, 1519.424 1120, 1518.721 1120 C 1518.017 1120, 1516.793 1120.900, 1516 1122 C 1515.207 1123.100, 1513.967 1124, 1513.244 1124 C 1511.844 1124, 1509.519 1125.932, 1502.729 1132.741 C 1494.504 1140.989, 1492 1143.960, 1492 1145.472 C 1492 1146.312, 1491.619 1147, 1491.153 1147 C 1489.576 1147, 1486 1150.725, 1486 1152.367 C 1486 1153.265, 1485.550 1154, 1485 1154 C 1484.450 1154, 1484 1154.900, 1484 1156 C 1484 1157.100, 1483.550 1158, 1483 1158 C 1482.450 1158, 1482 1158.900, 1482 1160 C 1482 1161.100, 1481.600 1162, 1481.111 1162 C 1480.623 1162, 1479.927 1163.575, 1479.566 1165.500 C 1479.205 1167.425, 1478.480 1169, 1477.955 1169 C 1477.430 1169, 1477 1170.350, 1477 1172 C 1477 1173.650, 1476.550 1175, 1476 1175 C 1475.450 1175, 1475 1176.350, 1475 1178 C 1475 1179.650, 1474.550 1181, 1474 1181 C 1473.450 1181, 1473 1182.575, 1473 1184.500 C 1473 1186.425, 1472.550 1188, 1472 1188 C 1471.444 1188, 1471 1190.667, 1471 1194 C 1471 1197.333, 1470.556 1200, 1470 1200 C 1469.367 1200, 1469 1207.333, 1469 1220 C 1469 1232.667, 1469.367 1240, 1470 1240 C 1470.550 1240, 1471 1242.475, 1471 1245.500 C 1471 1248.525, 1471.450 1251, 1472 1251 C 1472.550 1251, 1473 1252.800, 1473 1255 C 1473 1257.200, 1473.450 1259, 1474 1259 C 1474.550 1259, 1475 1260.125, 1475 1261.500 C 1475 1262.875, 1475.450 1264, 1476 1264 C 1476.550 1264, 1477 1265.350, 1477 1267 C 1477 1268.650, 1477.435 1270, 1477.966 1270 C 1478.497 1270, 1479.230 1272.250, 1479.594 1275 C 1479.959 1277.750, 1480.650 1280, 1481.129 1280 C 1481.608 1280, 1482 1280.576, 1482 1281.279 C 1482 1281.983, 1482.900 1283.207, 1484 1284 C 1485.100 1284.793, 1486 1286.242, 1486 1287.221 C 1486 1288.199, 1486.450 1289, 1487 1289 C 1487.550 1289, 1488 1289.719, 1488 1290.599 C 1488 1291.478, 1489.350 1293.459, 1491 1295 C 1492.650 1296.541, 1494 1298.088, 1494 1298.437 C 1494 1299.987, 1507.699 1314, 1509.214 1314 C 1509.954 1314, 1511.207 1314.900, 1512 1316 C 1512.793 1317.100, 1514.256 1318, 1515.252 1318 C 1516.248 1318, 1517.322 1318.675, 1517.638 1319.500 C 1517.955 1320.325, 1519.066 1321, 1520.107 1321 C 1521.148 1321, 1522 1321.450, 1522 1322 C 1522 1322.550, 1522.900 1323, 1524 1323 C 1525.100 1323, 1526 1323.450, 1526 1324 C 1526 1324.550, 1526.900 1325, 1528 1325 C 1529.100 1325, 1530 1325.450, 1530 1326 C 1530 1326.550, 1530.900 1327, 1532 1327 C 1533.100 1327, 1534 1327.450, 1534 1328 C 1534 1328.550, 1535.125 1329, 1536.500 1329 C 1537.875 1329, 1539 1329.450, 1539 1330 C 1539 1330.550, 1540.800 1331, 1543 1331 C 1545.200 1331, 1547 1331.450, 1547 1332 C 1547 1332.550, 1549.025 1333, 1551.500 1333 C 1553.975 1333, 1556 1333.450, 1556 1334 C 1556 1334.624, 1561.833 1335, 1571.500 1335 C 1581.167 1335, 1587 1334.624, 1587 1334 C 1587 1333.450, 1589.475 1333, 1592.500 1333 C 1595.525 1333, 1598 1332.550, 1598 1332 C 1598 1331.450, 1599.350 1331, 1601 1331 C 1602.650 1331, 1604 1330.550, 1604 1330 C 1604 1329.450, 1605.350 1329, 1607 1329 C 1608.650 1329, 1610 1328.550, 1610 1328 C 1610 1327.450, 1611.125 1327, 1612.500 1327 C 1613.875 1327, 1615 1326.550, 1615 1326 C 1615 1325.450, 1615.900 1325, 1617 1325 C 1618.100 1325, 1619 1324.550, 1619 1324 C 1619 1323.450, 1619.900 1323, 1621 1323 C 1622.100 1323, 1623 1322.550, 1623 1322 C 1623 1321.450, 1623.900 1321, 1625 1321 C 1626.100 1321, 1627 1320.580, 1627 1320.067 C 1627 1319.554, 1628.003 1318.816, 1629.230 1318.427 C 1630.456 1318.038, 1632.662 1316.432, 1634.131 1314.860 C 1635.600 1313.287, 1637.312 1312, 1637.936 1312 C 1639.365 1312, 1653 1298.303, 1653 1296.866 C 1653 1296.281, 1654.350 1294.541, 1656 1293 C 1657.650 1291.459, 1659 1289.478, 1659 1288.599 C 1659 1287.719, 1659.450 1287, 1660 1287 C 1660.550 1287, 1661 1286.100, 1661 1285 C 1661 1283.900, 1661.450 1283, 1662 1283 C 1662.649 1283, 1663 1270, 1663 1246 L 1663 1209 1616.500 1209 L 1570 1209 1570 1229 L 1570 1249 1593.500 1249 L 1617 1249 1617 1261.279 C 1617 1272.411, 1616.813 1273.693, 1615 1275 C 1613.900 1275.793, 1613 1277.242, 1613 1278.221 C 1613 1279.199, 1612.345 1280, 1611.545 1280 C 1610.745 1280, 1608.966 1281.125, 1607.591 1282.500 C 1606.216 1283.875, 1604.395 1285, 1603.545 1285 C 1602.695 1285, 1602 1285.450, 1602 1286 C 1602 1286.550, 1601.100 1287, 1600 1287 C 1598.900 1287, 1598 1287.450, 1598 1288 C 1598 1288.550, 1597.100 1289, 1596 1289 C 1594.900 1289, 1594 1289.450, 1594 1290 C 1594 1290.550, 1592.875 1291, 1591.500 1291 C 1590.125 1291, 1589 1291.450, 1589 1292 C 1589 1292.624, 1583.167 1293, 1573.500 1293 C 1563.833 1293, 1558 1292.624, 1558 1292 C 1558 1291.450, 1556.875 1291, 1555.500 1291 C 1554.125 1291, 1553 1290.550, 1553 1290 C 1553 1289.450, 1552.100 1289, 1551 1289 C 1549.900 1289, 1549 1288.550, 1549 1288 C 1549 1287.450, 1548.100 1287, 1547 1287 C 1545.900 1287, 1545 1286.550, 1545 1286 C 1545 1285.450, 1544.303 1285, 1543.452 1285 C 1541.585 1285, 1528 1271.585, 1528 1269.741 C 1528 1269.026, 1527.100 1267.793, 1526 1267 C 1524.900 1266.207, 1524 1264.758, 1524 1263.779 C 1524 1262.801, 1523.550 1262, 1523 1262 C 1522.450 1262, 1522 1260.875, 1522 1259.500 C 1522 1258.125, 1521.550 1257, 1521 1257 C 1520.450 1257, 1520 1255.688, 1520 1254.083 C 1520 1252.479, 1519.559 1251.017, 1519.019 1250.833 C 1518.480 1250.650, 1517.738 1245.888, 1517.369 1240.250 C 1517.001 1234.612, 1516.317 1230, 1515.850 1230 C 1515.382 1230, 1515 1225.275, 1515 1219.500 C 1515 1213.725, 1515.382 1209, 1515.850 1209 C 1516.317 1209, 1517.001 1204.388, 1517.369 1198.750 C 1517.738 1193.112, 1518.480 1188.350, 1519.019 1188.167 C 1519.559 1187.983, 1520 1186.746, 1520 1185.417 C 1520 1184.088, 1520.450 1183, 1521 1183 C 1521.550 1183, 1522 1182.100, 1522 1181 C 1522 1179.900, 1522.450 1179, 1523 1179 C 1523.550 1179, 1524 1178.100, 1524 1177 C 1524 1175.900, 1524.450 1175, 1525 1175 C 1525.550 1175, 1526 1174.199, 1526 1173.221 C 1526 1172.242, 1526.900 1170.793, 1528 1170 C 1529.100 1169.207, 1530 1168.193, 1530 1167.746 C 1530 1167.299, 1531.575 1165.358, 1533.500 1163.433 C 1535.425 1161.508, 1537 1159.498, 1537 1158.967 C 1537 1158.435, 1537.801 1158, 1538.779 1158 C 1539.758 1158, 1541.207 1157.100, 1542 1156 C 1542.793 1154.900, 1544.242 1154, 1545.221 1154 C 1546.199 1154, 1547 1153.550, 1547 1153 C 1547 1152.450, 1548.350 1152, 1550 1152 C 1551.650 1152, 1553 1151.550, 1553 1151 C 1553 1150.450, 1554.125 1150, 1555.500 1150 C 1556.875 1150, 1558 1149.550, 1558 1149 C 1558 1148.387, 1562.833 1148, 1570.500 1148 C 1578.167 1148, 1583 1148.387, 1583 1149 C 1583 1149.550, 1584.800 1150, 1587 1150 C 1589.200 1150, 1591 1150.450, 1591 1151 C 1591 1151.550, 1591.675 1152, 1592.500 1152 C 1593.325 1152, 1594 1152.450, 1594 1153 C 1594 1153.550, 1594.801 1154, 1595.779 1154 C 1596.758 1154, 1598.207 1154.900, 1599 1156 C 1599.793 1157.100, 1601.015 1158, 1601.716 1158 C 1603.451 1158, 1613 1167.461, 1613 1169.180 C 1613 1169.938, 1613.900 1171.207, 1615 1172 C 1616.100 1172.793, 1617 1174.049, 1617 1174.792 C 1617 1175.535, 1617.643 1176.786, 1618.429 1177.571 C 1620.067 1179.210, 1623 1179.485, 1623 1178 C 1623 1177.450, 1623.801 1177, 1624.779 1177 C 1625.758 1177, 1627.207 1176.100, 1628 1175 C 1628.793 1173.900, 1629.918 1173, 1630.500 1173 C 1631.082 1173, 1632.207 1172.100, 1633 1171 C 1633.793 1169.900, 1635.242 1169, 1636.221 1169 C 1637.199 1169, 1638 1168.550, 1638 1168 C 1638 1167.450, 1638.868 1167, 1639.929 1167 C 1640.989 1167, 1642.532 1166.325, 1643.357 1165.500 C 1644.182 1164.675, 1645.465 1164, 1646.208 1164 C 1646.951 1164, 1648.207 1163.100, 1649 1162 C 1649.793 1160.900, 1650.824 1160, 1651.292 1160 C 1651.760 1160, 1652.894 1159.249, 1653.813 1158.330 C 1655.027 1157.116, 1655.144 1156.548, 1654.241 1156.247 C 1653.558 1156.019, 1653 1154.971, 1653 1153.917 C 1653 1152.862, 1652.559 1152, 1652.019 1152 C 1651.480 1152, 1650.756 1150.875, 1650.411 1149.500 C 1650.066 1148.125, 1649.382 1147, 1648.892 1147 C 1648.401 1147, 1648 1146.296, 1648 1145.435 C 1648 1144.574, 1645.750 1141.679, 1643 1139 C 1640.250 1136.321, 1638 1133.618, 1638 1132.993 C 1638 1131.441, 1635.440 1129, 1633.812 1129 C 1633.080 1129, 1631.135 1127.435, 1629.490 1125.522 C 1627.846 1123.608, 1625.812 1122.033, 1624.971 1122.022 C 1624.130 1122.010, 1622.793 1121.100, 1622 1120 C 1621.207 1118.900, 1619.758 1118, 1618.779 1118 C 1617.801 1118, 1617 1117.550, 1617 1117 C 1617 1116.450, 1616.100 1116, 1615 1116 C 1613.900 1116, 1613 1115.550, 1613 1115 C 1613 1114.450, 1612.325 1114, 1611.500 1114 C 1610.675 1114, 1610 1113.550, 1610 1113 C 1610 1112.450, 1608.650 1112, 1607 1112 C 1605.350 1112, 1604 1111.586, 1604 1111.080 C 1604 1110.573, 1601.075 1109.846, 1597.500 1109.463 C 1593.925 1109.080, 1591 1108.369, 1591 1107.884 C 1591 1107.398, 1582.450 1107, 1572 1107 C 1561.550 1107, 1553 1107.384, 1553 1107.853 M 1800 1107.855 C 1800 1108.325, 1796.743 1108.983, 1792.763 1109.317 C 1788.782 1109.650, 1785.370 1110.391, 1785.179 1110.962 C 1784.989 1111.533, 1783.971 1112, 1782.917 1112 C 1781.862 1112, 1781 1112.450, 1781 1113 C 1781 1113.550, 1779.650 1114, 1778 1114 C 1776.350 1114, 1775 1114.450, 1775 1115 C 1775 1115.550, 1774.100 1116, 1773 1116 C 1771.900 1116, 1771 1116.450, 1771 1117 C 1771 1117.550, 1770.130 1118, 1769.067 1118 C 1768.004 1118, 1766.849 1118.900, 1766.500 1120 C 1766.151 1121.100, 1765.176 1122, 1764.334 1122 C 1763.492 1122, 1761.541 1123.350, 1760 1125 C 1758.459 1126.650, 1756.493 1128, 1755.632 1128 C 1753.594 1128, 1743 1138.955, 1743 1141.063 C 1743 1141.687, 1741.650 1143.459, 1740 1145 C 1738.350 1146.541, 1737 1148.198, 1737 1148.680 C 1737 1149.163, 1736.100 1150.207, 1735 1151 C 1733.900 1151.793, 1733 1153.242, 1733 1154.221 C 1733 1155.199, 1732.550 1156, 1732 1156 C 1731.450 1156, 1731 1156.900, 1731 1158 C 1731 1159.100, 1730.600 1160, 1730.111 1160 C 1729.623 1160, 1728.927 1161.575, 1728.566 1163.500 C 1728.205 1165.425, 1727.480 1167, 1726.955 1167 C 1726.430 1167, 1726 1168.350, 1726 1170 C 1726 1171.650, 1725.550 1173, 1725 1173 C 1724.450 1173, 1724 1174.350, 1724 1176 C 1724 1177.650, 1723.550 1179, 1723 1179 C 1722.450 1179, 1722 1180.575, 1722 1182.500 C 1722 1184.425, 1721.550 1186, 1721 1186 C 1720.450 1186, 1720 1188.250, 1720 1191 C 1720 1193.750, 1719.550 1196, 1719 1196 C 1718.361 1196, 1718 1204.833, 1718 1220.500 C 1718 1236.167, 1718.361 1245, 1719 1245 C 1719.550 1245, 1720 1247.250, 1720 1250 C 1720 1252.750, 1720.450 1255, 1721 1255 C 1721.550 1255, 1722 1256.350, 1722 1258 C 1722 1259.650, 1722.450 1261, 1723 1261 C 1723.550 1261, 1724 1262.575, 1724 1264.500 C 1724 1266.425, 1724.450 1268, 1725 1268 C 1725.550 1268, 1726 1268.900, 1726 1270 C 1726 1271.100, 1726.391 1272, 1726.868 1272 C 1727.346 1272, 1727.992 1273.903, 1728.304 1276.228 C 1728.616 1278.554, 1729.350 1280.617, 1729.935 1280.812 C 1730.521 1281.007, 1731 1281.930, 1731 1282.863 C 1731 1283.795, 1731.900 1285.207, 1733 1286 C 1734.100 1286.793, 1735 1288.143, 1735 1289 C 1735 1289.857, 1735.900 1291.207, 1737 1292 C 1738.100 1292.793, 1739 1294.143, 1739 1295 C 1739 1295.857, 1739.942 1297.220, 1741.093 1298.029 C 1745.296 1300.982, 1747 1302.766, 1747 1304.214 C 1747 1306.088, 1750.344 1310, 1751.946 1310 C 1752.612 1310, 1754.813 1311.724, 1756.838 1313.831 C 1758.862 1315.938, 1761.752 1317.972, 1763.259 1318.350 C 1764.767 1318.729, 1766 1319.480, 1766 1320.019 C 1766 1320.559, 1766.675 1321, 1767.500 1321 C 1768.325 1321, 1769 1321.450, 1769 1322 C 1769 1322.550, 1769.900 1323, 1771 1323 C 1772.100 1323, 1773 1323.450, 1773 1324 C 1773 1324.550, 1773.900 1325, 1775 1325 C 1776.100 1325, 1777 1325.450, 1777 1326 C 1777 1326.550, 1777.900 1327, 1779 1327 C 1780.100 1327, 1781 1327.450, 1781 1328 C 1781 1328.550, 1782.125 1329, 1783.500 1329 C 1784.875 1329, 1786 1329.450, 1786 1330 C 1786 1330.550, 1787.800 1331, 1790 1331 C 1792.200 1331, 1794 1331.450, 1794 1332 C 1794 1332.550, 1796.250 1333, 1799 1333 C 1801.750 1333, 1804 1333.450, 1804 1334 C 1804 1334.625, 1810 1335, 1820 1335 C 1830 1335, 1836 1334.625, 1836 1334 C 1836 1333.450, 1838.025 1333, 1840.500 1333 C 1842.975 1333, 1845 1332.550, 1845 1332 C 1845 1331.450, 1846.350 1331, 1848 1331 C 1849.650 1331, 1851 1330.550, 1851 1330 C 1851 1329.450, 1852.350 1329, 1854 1329 C 1855.650 1329, 1857 1328.550, 1857 1328 C 1857 1327.450, 1857.900 1327, 1859 1327 C 1860.100 1327, 1861 1326.550, 1861 1326 C 1861 1325.450, 1861.675 1325, 1862.500 1325 C 1863.325 1325, 1864 1324.550, 1864 1324 C 1864 1323.450, 1864.900 1323, 1866 1323 C 1867.100 1323, 1868 1322.550, 1868 1322 C 1868 1321.450, 1868.900 1321, 1870 1321 C 1871.100 1321, 1872 1320.559, 1872 1320.019 C 1872 1319.480, 1873.237 1318.733, 1874.750 1318.359 C 1877.429 1317.698, 1881 1314.548, 1881 1312.847 C 1881 1312.381, 1881.687 1312, 1882.526 1312 C 1884.511 1312, 1893 1303.511, 1893 1301.526 C 1893 1300.687, 1893.430 1300, 1893.955 1300 C 1895.577 1300, 1900 1295.007, 1900 1293.175 C 1900 1292.222, 1900.900 1290.793, 1902 1290 C 1903.100 1289.207, 1904 1287.758, 1904 1286.779 C 1904 1285.801, 1904.450 1285, 1905 1285 C 1905.550 1285, 1906 1284.100, 1906 1283 C 1906 1281.900, 1906.450 1281, 1907 1281 C 1907.550 1281, 1908 1280.325, 1908 1279.500 C 1908 1278.675, 1908.450 1278, 1909 1278 C 1909.550 1278, 1910 1277.100, 1910 1276 C 1910 1274.900, 1910.450 1274, 1911 1274 C 1911.550 1274, 1912 1272.650, 1912 1271 C 1912 1269.350, 1912.450 1268, 1913 1268 C 1913.550 1268, 1914 1266.650, 1914 1265 C 1914 1263.350, 1914.450 1262, 1915 1262 C 1915.550 1262, 1916 1260.912, 1916 1259.583 C 1916 1258.254, 1916.443 1257.017, 1916.985 1256.833 C 1917.527 1256.650, 1918.271 1250.537, 1918.639 1243.250 C 1919.007 1235.963, 1919.689 1230, 1920.154 1230 C 1920.619 1230, 1921 1225.725, 1921 1220.500 C 1921 1215.275, 1920.619 1211, 1920.154 1211 C 1919.689 1211, 1919.018 1205.264, 1918.663 1198.253 C 1918.304 1191.168, 1917.569 1185.356, 1917.008 1185.169 C 1916.454 1184.985, 1916 1183.521, 1916 1181.917 C 1916 1180.313, 1915.550 1179, 1915 1179 C 1914.450 1179, 1914 1177.650, 1914 1176 C 1914 1174.350, 1913.550 1173, 1913 1173 C 1912.450 1173, 1912 1171.650, 1912 1170 C 1912 1168.350, 1911.550 1167, 1911 1167 C 1910.450 1167, 1910 1166.325, 1910 1165.500 C 1910 1164.675, 1909.550 1164, 1909 1164 C 1908.450 1164, 1908 1163.100, 1908 1162 C 1908 1160.900, 1907.550 1160, 1907 1160 C 1906.450 1160, 1906 1159.100, 1906 1158 C 1906 1156.900, 1905.550 1156, 1905 1156 C 1904.450 1156, 1904 1155.199, 1904 1154.221 C 1904 1153.242, 1903.100 1151.793, 1902 1151 C 1900.900 1150.207, 1900 1149.003, 1900 1148.325 C 1900 1147.646, 1898.875 1145.966, 1897.500 1144.591 C 1896.125 1143.216, 1895 1141.596, 1895 1140.990 C 1895 1139.602, 1883.251 1128, 1881.845 1128 C 1881.271 1128, 1879.541 1126.650, 1878 1125 C 1876.459 1123.350, 1874.478 1122, 1873.599 1122 C 1872.719 1122, 1872 1121.550, 1872 1121 C 1872 1120.450, 1871.199 1120, 1870.221 1120 C 1869.242 1120, 1867.793 1119.100, 1867 1118 C 1866.207 1116.900, 1864.758 1116, 1863.779 1116 C 1862.801 1116, 1862 1115.550, 1862 1115 C 1862 1114.450, 1860.875 1114, 1859.500 1114 C 1858.125 1114, 1857 1113.550, 1857 1113 C 1857 1112.450, 1856.100 1112, 1855 1112 C 1853.900 1112, 1853 1111.603, 1853 1111.117 C 1853 1110.632, 1849.625 1109.919, 1845.500 1109.532 C 1841.375 1109.146, 1838 1108.418, 1838 1107.915 C 1838 1107.394, 1829.818 1107, 1819 1107 C 1808.550 1107, 1800 1107.385, 1800 1107.855 M 1985.250 1108.496 C 1984.266 1109.613, 1984 1133.448, 1984 1220.458 L 1984 1331 2007 1331 L 2030 1331 2030 1268 C 2030 1226.667, 2030.344 1205, 2031 1205 C 2031.550 1205, 2032 1205.430, 2032 1205.955 C 2032 1206.480, 2033.125 1208.034, 2034.500 1209.409 C 2035.875 1210.784, 2037 1212.409, 2037 1213.019 C 2037 1213.630, 2039.250 1216.321, 2042 1219 C 2044.750 1221.679, 2047 1224.140, 2047 1224.471 C 2047 1225.032, 2048.048 1226.273, 2053.750 1232.466 C 2054.988 1233.809, 2056 1235.424, 2056 1236.053 C 2056 1237.220, 2060.085 1241.319, 2063.889 1243.971 C 2065.050 1244.780, 2066 1246.038, 2066 1246.766 C 2066 1247.495, 2067.012 1249.191, 2068.250 1250.534 C 2069.488 1251.878, 2071.512 1254.092, 2072.750 1255.453 C 2073.988 1256.815, 2075 1258.620, 2075 1259.464 C 2075 1260.309, 2075.413 1261, 2075.918 1261 C 2077.252 1261, 2085 1268.642, 2085 1269.957 C 2085 1270.995, 2085.803 1272.007, 2091.750 1278.466 C 2092.988 1279.809, 2094 1281.190, 2094 1281.533 C 2094 1281.876, 2095.800 1283.886, 2098 1286 C 2100.200 1288.114, 2102 1290.355, 2102 1290.980 C 2102 1291.605, 2104.025 1294.112, 2106.500 1296.552 C 2108.975 1298.992, 2111 1301.470, 2111 1302.059 C 2111 1302.648, 2113.250 1305.321, 2116 1308 C 2118.750 1310.679, 2121 1313.475, 2121 1314.214 C 2121 1314.954, 2121.955 1316.220, 2123.123 1317.029 C 2126.549 1319.404, 2130 1323.399, 2130 1324.991 C 2130 1325.583, 2131.560 1327.627, 2133.467 1329.533 C 2136.911 1332.977, 2136.993 1333, 2145.967 1333 L 2155 1333 2155 1221.500 L 2155 1110 2132 1110 L 2109 1110 2109 1172.045 L 2109 1234.091 2106.500 1231.591 C 2105.125 1230.216, 2104 1228.495, 2104 1227.766 C 2104 1227.038, 2103.050 1225.780, 2101.889 1224.971 C 2098.085 1222.319, 2094 1218.220, 2094 1217.053 C 2094 1216.424, 2092.988 1214.809, 2091.750 1213.466 C 2086.048 1207.273, 2085 1206.032, 2085 1205.471 C 2085 1205.140, 2082.750 1202.679, 2080 1200 C 2077.250 1197.321, 2075 1194.630, 2075 1194.019 C 2075 1193.409, 2073.875 1191.784, 2072.500 1190.409 C 2071.125 1189.034, 2070 1187.510, 2070 1187.022 C 2070 1186.534, 2069.100 1185.849, 2068 1185.500 C 2066.900 1185.151, 2066 1184.191, 2066 1183.368 C 2066 1182.544, 2063.750 1179.679, 2061 1177 C 2058.250 1174.321, 2056 1171.634, 2056 1171.028 C 2056 1170.421, 2053.975 1167.957, 2051.500 1165.552 C 2049.025 1163.146, 2047 1160.659, 2047 1160.024 C 2047 1159.390, 2044.750 1156.679, 2042 1154 C 2039.250 1151.321, 2037 1148.860, 2037 1148.529 C 2037 1147.968, 2035.952 1146.727, 2030.250 1140.534 C 2029.013 1139.191, 2028 1137.585, 2028 1136.967 C 2028 1135.644, 2020.258 1128, 2018.918 1128 C 2018.413 1128, 2018 1127.309, 2018 1126.464 C 2018 1125.620, 2016.987 1123.815, 2015.750 1122.453 C 2014.513 1121.092, 2012.487 1118.878, 2011.250 1117.534 C 2010.013 1116.191, 2009 1114.495, 2009 1113.766 C 2009 1113.038, 2008.045 1111.780, 2006.877 1110.971 C 2005.710 1110.162, 2004.167 1108.938, 2003.449 1108.250 C 2001.554 1106.436, 1986.889 1106.634, 1985.250 1108.496 M 2 1220.500 L 2 1331 25 1331 L 48 1331 48 1292 L 48 1253 61.545 1253 C 74.594 1253, 75.181 1253.090, 77.545 1255.455 C 78.895 1256.805, 80 1258.605, 80 1259.455 C 80 1260.305, 80.450 1261, 81 1261 C 81.550 1261, 82 1261.576, 82 1262.279 C 82 1262.983, 82.900 1264.207, 84 1265 C 85.100 1265.793, 86 1267.049, 86 1267.792 C 86 1268.535, 86.675 1269.818, 87.500 1270.643 C 88.325 1271.468, 89 1273.011, 89 1274.071 C 89 1275.132, 89.450 1276, 90 1276 C 90.550 1276, 91 1276.870, 91 1277.933 C 91 1278.996, 91.900 1280.151, 93 1280.500 C 94.100 1280.849, 95 1281.905, 95 1282.847 C 95 1283.788, 95.900 1285.207, 97 1286 C 98.100 1286.793, 99 1288.242, 99 1289.221 C 99 1290.199, 99.450 1291, 100 1291 C 100.550 1291, 101 1291.801, 101 1292.779 C 101 1293.758, 101.900 1295.207, 103 1296 C 104.100 1296.793, 105 1298.017, 105 1298.721 C 105 1299.424, 105.441 1300, 105.981 1300 C 106.520 1300, 107.267 1301.237, 107.641 1302.750 C 108.014 1304.263, 109.148 1306.228, 110.160 1307.117 C 111.172 1308.007, 112 1309.469, 112 1310.367 C 112 1311.265, 112.450 1312, 113 1312 C 113.550 1312, 114 1312.801, 114 1313.779 C 114 1314.758, 114.900 1316.207, 116 1317 C 117.100 1317.793, 118 1318.918, 118 1319.500 C 118 1320.082, 118.900 1321.207, 120 1322 C 121.100 1322.793, 122 1324.242, 122 1325.221 C 122 1326.199, 122.450 1327, 123 1327 C 123.550 1327, 124 1327.900, 124 1329 C 124 1330.948, 124.667 1331, 149.500 1331 C 165.833 1331, 175 1330.641, 175 1330 C 175 1329.450, 174.550 1329, 174 1329 C 173.450 1329, 173 1328.100, 173 1327 C 173 1325.900, 172.550 1325, 172 1325 C 171.450 1325, 171 1324.199, 171 1323.221 C 171 1322.242, 170.100 1320.793, 169 1320 C 167.900 1319.207, 167 1317.983, 167 1317.279 C 167 1316.576, 166.559 1316, 166.019 1316 C 165.480 1316, 164.733 1314.763, 164.359 1313.250 C 163.986 1311.737, 162.852 1309.772, 161.840 1308.883 C 160.828 1307.993, 160 1306.531, 160 1305.633 C 160 1304.735, 159.550 1304, 159 1304 C 158.450 1304, 158 1303.130, 158 1302.067 C 158 1301.004, 157.100 1299.849, 156 1299.500 C 154.900 1299.151, 154 1298.095, 154 1297.153 C 154 1296.212, 153.100 1294.793, 152 1294 C 150.900 1293.207, 150 1291.758, 150 1290.779 C 150 1289.801, 149.550 1289, 149 1289 C 148.450 1289, 148 1288.100, 148 1287 C 148 1285.900, 147.580 1285, 147.067 1285 C 146.554 1285, 145.815 1283.987, 145.424 1282.750 C 145.034 1281.513, 143.878 1279.772, 142.857 1278.883 C 141.836 1277.993, 141 1276.531, 141 1275.633 C 141 1274.735, 140.550 1274, 140 1274 C 139.450 1274, 139 1273.199, 139 1272.221 C 139 1271.242, 138.100 1269.793, 137 1269 C 135.900 1268.207, 135 1266.857, 135 1266 C 135 1265.143, 134.100 1263.793, 133 1263 C 131.900 1262.207, 131 1261.148, 131 1260.647 C 131 1260.145, 130.160 1259.006, 129.134 1258.116 C 128.108 1257.226, 126.923 1254.924, 126.500 1253 C 126.077 1251.076, 124.892 1248.774, 123.866 1247.884 C 121.311 1245.668, 121.395 1242, 124 1242 C 125.100 1242, 126 1241.619, 126 1241.153 C 126 1239.809, 129.617 1236, 130.894 1236 C 132.570 1236, 141 1227.320, 141 1225.594 C 141 1224.791, 141.900 1223.849, 143 1223.500 C 144.100 1223.151, 145 1222.028, 145 1221.004 C 145 1219.980, 145.675 1218.468, 146.500 1217.643 C 147.325 1216.818, 148 1215.436, 148 1214.571 C 148 1213.707, 148.450 1213, 149 1213 C 149.550 1213, 150 1211.650, 150 1210 C 150 1208.350, 150.450 1207, 151 1207 C 151.550 1207, 152 1205.875, 152 1204.500 C 152 1203.125, 152.450 1202, 153 1202 C 153.556 1202, 154 1199.333, 154 1196 C 154 1192.667, 154.444 1190, 155 1190 C 155.588 1190, 156 1186.500, 156 1181.500 C 156 1176.500, 155.588 1173, 155 1173 C 154.450 1173, 154 1170.525, 154 1167.500 C 154 1164.475, 153.550 1162, 153 1162 C 152.450 1162, 152 1160.650, 152 1159 C 152 1157.350, 151.550 1156, 151 1156 C 150.450 1156, 150 1154.650, 150 1153 C 150 1151.350, 149.550 1150, 149 1150 C 148.450 1150, 148 1149.325, 148 1148.500 C 148 1147.675, 147.550 1147, 147 1147 C 146.450 1147, 146 1146.132, 146 1145.071 C 146 1144.011, 145.325 1142.468, 144.500 1141.643 C 143.675 1140.818, 143 1139.631, 143 1139.007 C 143 1138.026, 138.560 1133.486, 130.286 1126.002 C 129.068 1124.901, 127.705 1124, 127.256 1124 C 126.808 1124, 125.793 1123.100, 125 1122 C 124.207 1120.900, 122.758 1120, 121.779 1120 C 120.801 1120, 120 1119.550, 120 1119 C 120 1118.450, 119.100 1118, 118 1118 C 116.900 1118, 116 1117.550, 116 1117 C 116 1116.450, 114.650 1116, 113 1116 C 111.350 1116, 110 1115.550, 110 1115 C 110 1114.450, 108.875 1114, 107.500 1114 C 106.125 1114, 105 1113.550, 105 1113 C 105 1112.450, 102.750 1112, 100 1112 C 97.250 1112, 95 1111.550, 95 1111 C 95 1110.348, 78.833 1110, 48.500 1110 L 2 1110 2 1220.500 M 230 1220.500 L 230 1331 299.500 1331 L 369 1331 369 1310 L 369 1289 322.500 1289 L 276 1289 276 1261.500 L 276 1234 309 1234 L 342 1234 342 1215 L 342 1196 309 1196 L 276 1196 276 1173 L 276 1150 320.500 1150 L 365 1150 365 1130 L 365 1110 297.500 1110 L 230 1110 230 1220.500 M 433 1220.500 L 433 1331 474 1331 C 500.667 1331, 515 1330.650, 515 1330 C 515 1329.450, 517.475 1329, 520.500 1329 C 523.525 1329, 526 1328.550, 526 1328 C 526 1327.450, 527.800 1327, 530 1327 C 532.200 1327, 534 1326.550, 534 1326 C 534 1325.450, 535.350 1325, 537 1325 C 538.650 1325, 540 1324.550, 540 1324 C 540 1323.450, 541.125 1323, 542.500 1323 C 543.875 1323, 545 1322.550, 545 1322 C 545 1321.450, 545.900 1321, 547 1321 C 548.100 1321, 549 1320.590, 549 1320.088 C 549 1319.586, 550.800 1318.872, 553 1318.500 C 555.200 1318.128, 557 1317.414, 557 1316.912 C 557 1316.410, 557.900 1316, 559 1316 C 560.100 1316, 561 1315.550, 561 1315 C 561 1314.450, 561.900 1314, 563 1314 C 564.100 1314, 565 1313.619, 565 1313.153 C 565 1311.809, 568.617 1308, 569.894 1308 C 570.531 1308, 573.057 1306.088, 575.506 1303.750 C 577.955 1301.412, 581.093 1298.472, 582.479 1297.215 C 583.866 1295.958, 585 1294.226, 585 1293.366 C 585 1292.506, 586.350 1290.541, 588 1289 C 589.650 1287.459, 591 1285.478, 591 1284.599 C 591 1283.719, 591.450 1283, 592 1283 C 592.550 1283, 593 1282.325, 593 1281.500 C 593 1280.675, 593.450 1280, 594 1280 C 594.550 1280, 595 1279.100, 595 1278 C 595 1276.900, 595.450 1276, 596 1276 C 596.550 1276, 597 1275.100, 597 1274 C 597 1272.900, 597.450 1272, 598 1272 C 598.550 1272, 599 1271.100, 599 1270 C 599 1268.900, 599.450 1268, 600 1268 C 600.550 1268, 601 1266.688, 601 1265.083 C 601 1263.479, 601.446 1262.017, 601.990 1261.833 C 602.535 1261.650, 603.274 1258.688, 603.633 1255.250 C 603.991 1251.813, 604.671 1249, 605.142 1249 C 605.614 1249, 606 1246.525, 606 1243.500 C 606 1240.475, 606.450 1238, 607 1238 C 607.630 1238, 608 1231.333, 608 1220 C 608 1208.667, 607.630 1202, 607 1202 C 606.444 1202, 606 1199.333, 606 1196 C 606 1192.700, 605.602 1190, 605.116 1190 C 604.631 1190, 603.920 1187.075, 603.537 1183.500 C 603.154 1179.925, 602.427 1177, 601.920 1177 C 601.414 1177, 601 1175.650, 601 1174 C 601 1172.350, 600.550 1171, 600 1171 C 599.450 1171, 599 1170.100, 599 1169 C 599 1167.900, 598.550 1167, 598 1167 C 597.450 1167, 597 1166.325, 597 1165.500 C 597 1164.675, 596.550 1164, 596 1164 C 595.450 1164, 595 1163.100, 595 1162 C 595 1160.900, 594.550 1160, 594 1160 C 593.450 1160, 593 1159.100, 593 1158 C 593 1156.900, 592.550 1156, 592 1156 C 591.450 1156, 591 1155.281, 591 1154.401 C 591 1153.522, 589.650 1151.541, 588 1150 C 586.350 1148.459, 585 1146.729, 585 1146.155 C 585 1144.749, 573.398 1133, 572.010 1133 C 571.404 1133, 569.784 1131.875, 568.409 1130.500 C 567.034 1129.125, 565.255 1128, 564.455 1128 C 563.655 1128, 563 1127.550, 563 1127 C 563 1126.450, 562.199 1126, 561.221 1126 C 560.242 1126, 558.793 1125.100, 558 1124 C 557.207 1122.900, 555.758 1122, 554.779 1122 C 553.801 1122, 553 1121.550, 553 1121 C 553 1120.450, 551.650 1120, 550 1120 C 548.350 1120, 547 1119.550, 547 1119 C 547 1118.450, 546.325 1118, 545.500 1118 C 544.675 1118, 544 1117.550, 544 1117 C 544 1116.450, 542.650 1116, 541 1116 C 539.350 1116, 538 1115.550, 538 1115 C 538 1114.450, 536.200 1114, 534 1114 C 531.800 1114, 530 1113.550, 530 1113 C 530 1112.450, 527.975 1112, 525.500 1112 C 523.025 1112, 521 1111.550, 521 1111 C 521 1110.348, 505.667 1110, 477 1110 L 433 1110 433 1220.500 M 789 1220.500 L 789 1331 829.500 1331 C 855.833 1331, 870 1330.650, 870 1330 C 870 1329.444, 872.667 1329, 876 1329 C 879.333 1329, 882 1328.556, 882 1328 C 882 1327.450, 883.575 1327, 885.500 1327 C 887.425 1327, 889 1326.550, 889 1326 C 889 1325.450, 890.350 1325, 892 1325 C 893.650 1325, 895 1324.550, 895 1324 C 895 1323.450, 896.350 1323, 898 1323 C 899.650 1323, 901 1322.550, 901 1322 C 901 1321.450, 901.900 1321, 903 1321 C 904.100 1321, 905 1320.570, 905 1320.045 C 905 1319.520, 906.575 1318.795, 908.500 1318.434 C 910.425 1318.073, 912 1317.377, 912 1316.889 C 912 1316.400, 912.900 1316, 914 1316 C 915.100 1316, 916 1315.550, 916 1315 C 916 1314.450, 916.719 1314, 917.599 1314 C 918.478 1314, 920.459 1312.650, 922 1311 C 923.541 1309.350, 925.084 1308, 925.428 1308 C 925.771 1308, 928.033 1306.088, 930.453 1303.750 C 932.874 1301.412, 936.224 1298.375, 937.897 1297 C 939.571 1295.625, 940.954 1293.917, 940.970 1293.205 C 940.987 1292.492, 942.125 1290.784, 943.500 1289.409 C 944.875 1288.034, 946 1286.030, 946 1284.955 C 946 1283.880, 946.450 1283, 947 1283 C 947.550 1283, 948 1282.325, 948 1281.500 C 948 1280.675, 948.450 1280, 949 1280 C 949.550 1280, 950 1279.100, 950 1278 C 950 1276.900, 950.450 1276, 951 1276 C 951.550 1276, 952 1275.100, 952 1274 C 952 1272.900, 952.450 1272, 953 1272 C 953.550 1272, 954 1271.100, 954 1270 C 954 1268.900, 954.450 1268, 955 1268 C 955.550 1268, 956 1266.650, 956 1265 C 956 1263.350, 956.450 1262, 957 1262 C 957.550 1262, 958 1260.875, 958 1259.500 C 958 1258.125, 958.450 1257, 959 1257 C 959.550 1257, 960 1255.200, 960 1253 C 960 1250.800, 960.450 1249, 961 1249 C 961.550 1249, 962 1246.525, 962 1243.500 C 962 1240.475, 962.450 1238, 963 1238 C 963.630 1238, 964 1231.333, 964 1220 C 964 1208.667, 963.630 1202, 963 1202 C 962.444 1202, 962 1199.333, 962 1196 C 962 1192.667, 961.556 1190, 961 1190 C 960.450 1190, 960 1188.425, 960 1186.500 C 960 1184.575, 959.550 1183, 959 1183 C 958.450 1183, 958 1181.650, 958 1180 C 958 1178.350, 957.550 1177, 957 1177 C 956.450 1177, 956 1175.650, 956 1174 C 956 1172.350, 955.550 1171, 955 1171 C 954.450 1171, 954 1170.100, 954 1169 C 954 1167.900, 953.550 1167, 953 1167 C 952.450 1167, 952 1166.325, 952 1165.500 C 952 1164.675, 951.550 1164, 951 1164 C 950.450 1164, 950 1163.100, 950 1162 C 950 1160.900, 949.550 1160, 949 1160 C 948.450 1160, 948 1159.100, 948 1158 C 948 1156.900, 947.550 1156, 947 1156 C 946.450 1156, 946 1155.120, 946 1154.045 C 946 1152.970, 944.875 1150.966, 943.500 1149.591 C 942.125 1148.216, 941 1146.837, 941 1146.527 C 941 1145.791, 928.209 1133, 927.473 1133 C 927.163 1133, 925.784 1131.875, 924.409 1130.500 C 923.034 1129.125, 921.030 1128, 919.955 1128 C 918.880 1128, 918 1127.550, 918 1127 C 918 1126.450, 917.199 1126, 916.221 1126 C 915.242 1126, 913.793 1125.100, 913 1124 C 912.207 1122.900, 910.758 1122, 909.779 1122 C 908.801 1122, 908 1121.550, 908 1121 C 908 1120.450, 906.875 1120, 905.500 1120 C 904.125 1120, 903 1119.550, 903 1119 C 903 1118.450, 902.100 1118, 901 1118 C 899.900 1118, 899 1117.550, 899 1117 C 899 1116.450, 897.650 1116, 896 1116 C 894.350 1116, 893 1115.550, 893 1115 C 893 1114.450, 891.425 1114, 889.500 1114 C 887.575 1114, 886 1113.550, 886 1113 C 886 1112.450, 883.750 1112, 881 1112 C 878.250 1112, 876 1111.550, 876 1111 C 876 1110.349, 860.833 1110, 832.500 1110 L 789 1110 789 1220.500 M 1028 1220.500 L 1028 1331 1050 1331 L 1072 1331 1072 1292 L 1072 1253 1085.545 1253 C 1098.594 1253, 1099.181 1253.090, 1101.545 1255.455 C 1102.895 1256.805, 1104 1258.574, 1104 1259.387 C 1104 1260.200, 1104.900 1261.151, 1106 1261.500 C 1107.100 1261.849, 1108 1262.905, 1108 1263.847 C 1108 1264.788, 1108.900 1266.207, 1110 1267 C 1111.100 1267.793, 1112 1269.242, 1112 1270.221 C 1112 1271.199, 1112.450 1272, 1113 1272 C 1113.550 1272, 1114 1272.735, 1114 1273.633 C 1114 1274.531, 1114.836 1275.993, 1115.857 1276.883 C 1116.878 1277.772, 1118.034 1279.513, 1118.424 1280.750 C 1118.815 1281.987, 1119.554 1283, 1120.067 1283 C 1120.580 1283, 1121 1283.900, 1121 1285 C 1121 1286.100, 1121.450 1287, 1122 1287 C 1122.550 1287, 1123 1287.801, 1123 1288.779 C 1123 1289.758, 1123.900 1291.207, 1125 1292 C 1126.100 1292.793, 1127 1294.143, 1127 1295 C 1127 1295.857, 1127.900 1297.207, 1129 1298 C 1130.100 1298.793, 1131 1300.017, 1131 1300.721 C 1131 1301.424, 1131.450 1302, 1132 1302 C 1132.550 1302, 1133 1302.735, 1133 1303.633 C 1133 1304.531, 1133.828 1305.993, 1134.840 1306.883 C 1135.852 1307.772, 1136.986 1309.737, 1137.359 1311.250 C 1137.733 1312.763, 1138.480 1314, 1139.019 1314 C 1139.559 1314, 1140 1314.900, 1140 1316 C 1140 1317.100, 1140.450 1318, 1141 1318 C 1141.550 1318, 1142 1318.576, 1142 1319.279 C 1142 1319.983, 1142.900 1321.207, 1144 1322 C 1145.100 1322.793, 1146 1324.038, 1146 1324.766 C 1146 1325.495, 1147.105 1327.195, 1148.455 1328.545 L 1150.909 1331 1174.955 1331 C 1196.530 1331, 1199 1330.832, 1199 1329.367 C 1199 1328.469, 1198.172 1327.007, 1197.160 1326.117 C 1196.148 1325.228, 1195.014 1323.263, 1194.641 1321.750 C 1194.267 1320.237, 1193.520 1319, 1192.981 1319 C 1192.441 1319, 1192 1318.325, 1192 1317.500 C 1192 1316.675, 1191.550 1316, 1191 1316 C 1190.450 1316, 1190 1315.199, 1190 1314.221 C 1190 1313.242, 1189.100 1311.793, 1188 1311 C 1186.900 1310.207, 1186 1308.857, 1186 1308 C 1186 1307.143, 1185.100 1305.793, 1184 1305 C 1182.900 1304.207, 1182 1302.758, 1182 1301.779 C 1182 1300.801, 1181.550 1300, 1181 1300 C 1180.450 1300, 1180 1299.490, 1180 1298.867 C 1180 1298.244, 1179.172 1297.007, 1178.160 1296.117 C 1177.148 1295.228, 1176.014 1293.263, 1175.641 1291.750 C 1175.267 1290.237, 1174.520 1289, 1173.981 1289 C 1173.441 1289, 1173 1288.199, 1173 1287.221 C 1173 1286.242, 1172.100 1284.793, 1171 1284 C 1169.900 1283.207, 1169 1281.983, 1169 1281.279 C 1169 1280.576, 1168.550 1280, 1168 1280 C 1167.450 1280, 1167 1279.199, 1167 1278.221 C 1167 1277.242, 1166.100 1275.793, 1165 1275 C 1163.900 1274.207, 1163 1272.857, 1163 1272 C 1163 1271.143, 1162.100 1269.793, 1161 1269 C 1159.900 1268.207, 1159 1266.758, 1159 1265.779 C 1159 1264.801, 1158.599 1264, 1158.108 1264 C 1157.618 1264, 1156.934 1262.875, 1156.589 1261.500 C 1156.244 1260.125, 1155.520 1259, 1154.981 1259 C 1154.441 1259, 1154 1258.199, 1154 1257.221 C 1154 1256.242, 1153.100 1254.793, 1152 1254 C 1150.900 1253.207, 1150 1251.758, 1150 1250.779 C 1150 1249.801, 1149.550 1249, 1149 1249 C 1148.450 1249, 1148 1248.100, 1148 1247 C 1148 1245.900, 1147.550 1245, 1147 1245 C 1146.450 1245, 1146 1244.325, 1146 1243.500 C 1146 1242.675, 1146.801 1242, 1147.779 1242 C 1148.758 1242, 1150.207 1241.100, 1151 1240 C 1151.793 1238.900, 1153.242 1238, 1154.221 1238 C 1155.199 1238, 1156 1237.560, 1156 1237.022 C 1156 1236.484, 1158.475 1233.568, 1161.500 1230.543 C 1164.525 1227.518, 1167 1224.683, 1167 1224.242 C 1167 1223.802, 1167.900 1222.793, 1169 1222 C 1170.100 1221.207, 1171 1219.758, 1171 1218.779 C 1171 1217.801, 1171.450 1217, 1172 1217 C 1172.550 1217, 1173 1216.100, 1173 1215 C 1173 1213.900, 1173.422 1213, 1173.939 1213 C 1174.455 1213, 1175.181 1210.975, 1175.552 1208.500 C 1175.923 1206.025, 1176.626 1204, 1177.114 1204 C 1177.601 1204, 1178 1201.750, 1178 1199 C 1178 1196.250, 1178.450 1194, 1179 1194 C 1179.613 1194, 1180 1189.167, 1180 1181.500 C 1180 1173.833, 1179.613 1169, 1179 1169 C 1178.450 1169, 1178 1166.975, 1178 1164.500 C 1178 1162.025, 1177.608 1160, 1177.129 1160 C 1176.650 1160, 1175.959 1157.750, 1175.594 1155 C 1175.230 1152.250, 1174.497 1150, 1173.966 1150 C 1173.435 1150, 1173 1149.325, 1173 1148.500 C 1173 1147.675, 1172.550 1147, 1172 1147 C 1171.450 1147, 1171 1146.100, 1171 1145 C 1171 1143.900, 1170.550 1143, 1170 1143 C 1169.450 1143, 1169 1142.315, 1169 1141.479 C 1169 1139.658, 1153.501 1124, 1151.699 1124 C 1151.007 1124, 1149.793 1123.100, 1149 1122 C 1148.207 1120.900, 1146.758 1120, 1145.779 1120 C 1144.801 1120, 1144 1119.550, 1144 1119 C 1144 1118.450, 1143.100 1118, 1142 1118 C 1140.900 1118, 1140 1117.550, 1140 1117 C 1140 1116.450, 1138.875 1116, 1137.500 1116 C 1136.125 1116, 1135 1115.550, 1135 1115 C 1135 1114.450, 1133.650 1114, 1132 1114 C 1130.350 1114, 1129 1113.550, 1129 1113 C 1129 1112.450, 1127.200 1112, 1125 1112 C 1122.800 1112, 1121 1111.550, 1121 1111 C 1121 1110.348, 1104.833 1110, 1074.500 1110 L 1028 1110 1028 1220.500 M 2306 1221.940 L 2306 1333 2326 1333 L 2346 1333 2346 1290.613 L 2346 1248.226 2373.750 1247.748 C 2397.875 1247.332, 2402.521 1246.994, 2409.314 1245.159 C 2420.508 1242.136, 2428.433 1237.575, 2436.516 1229.505 C 2449.669 1216.371, 2455.194 1201.580, 2455.194 1179.500 C 2455.194 1158.390, 2449.887 1143.366, 2437.904 1130.557 C 2430.659 1122.812, 2423.409 1118.181, 2412.490 1114.326 L 2404.500 1111.504 2355.250 1111.192 L 2306 1110.880 2306 1221.940 M 2560.635 1111.782 C 2560.369 1112.212, 2542.524 1161.824, 2520.980 1222.032 C 2499.435 1282.239, 2481.600 1331.838, 2481.345 1332.250 C 2481.090 1332.662, 2490.724 1333, 2502.754 1333 L 2524.626 1333 2530.207 1315.750 L 2535.788 1298.500 2573.596 1298.500 L 2611.403 1298.500 2616.879 1315.750 L 2622.354 1333 2644.086 1333 L 2665.818 1333 2662.659 1324.192 C 2660.922 1319.348, 2643.075 1269.407, 2623 1213.212 L 2586.500 1111.039 2573.809 1111.020 C 2566.829 1111.009, 2560.901 1111.352, 2560.635 1111.782 M 2674.426 1116.236 C 2675.709 1119.137, 2689.413 1149.727, 2704.879 1184.213 L 2733 1246.915 2733 1289.958 L 2733 1333 2753 1333 L 2773 1333 2773 1290.901 L 2773 1248.802 2803.500 1180.821 C 2820.275 1143.431, 2834 1112.426, 2834 1111.920 C 2834 1111.389, 2825.225 1111.008, 2813.250 1111.020 L 2792.500 1111.040 2773.069 1158.006 C 2762.382 1183.837, 2753.491 1204.824, 2753.312 1204.645 C 2753.133 1204.466, 2744.302 1183.435, 2733.688 1157.910 L 2714.391 1111.500 2693.242 1111.230 L 2672.093 1110.960 2674.426 1116.236 M 1807 1149 C 1807 1149.550, 1805.425 1150, 1803.500 1150 C 1801.575 1150, 1800 1150.450, 1800 1151 C 1800 1151.550, 1799.100 1152, 1798 1152 C 1796.900 1152, 1796 1152.450, 1796 1153 C 1796 1153.550, 1795.100 1154, 1794 1154 C 1792.900 1154, 1792 1154.450, 1792 1155 C 1792 1155.550, 1791.199 1156, 1790.221 1156 C 1789.242 1156, 1787.780 1156.965, 1786.971 1158.145 C 1784.723 1161.424, 1779.053 1167, 1777.967 1167 C 1777.435 1167, 1777 1167.801, 1777 1168.779 C 1777 1169.758, 1776.100 1171.207, 1775 1172 C 1773.900 1172.793, 1773 1174.242, 1773 1175.221 C 1773 1176.199, 1772.550 1177, 1772 1177 C 1771.450 1177, 1771 1177.900, 1771 1179 C 1771 1180.100, 1770.550 1181, 1770 1181 C 1769.450 1181, 1769 1182.125, 1769 1183.500 C 1769 1184.875, 1768.584 1186, 1768.075 1186 C 1767.566 1186, 1766.833 1190.050, 1766.446 1195 C 1766.059 1199.950, 1765.350 1204, 1764.871 1204 C 1764.392 1204, 1764 1211.650, 1764 1221 C 1764 1230.350, 1764.385 1238, 1764.856 1238 C 1765.327 1238, 1766.015 1241.263, 1766.384 1245.250 C 1766.753 1249.237, 1767.493 1252.650, 1768.027 1252.833 C 1768.562 1253.017, 1769 1254.479, 1769 1256.083 C 1769 1257.688, 1769.450 1259, 1770 1259 C 1770.550 1259, 1771 1259.675, 1771 1260.500 C 1771 1261.325, 1771.450 1262, 1772 1262 C 1772.550 1262, 1773 1262.900, 1773 1264 C 1773 1265.100, 1773.450 1266, 1774 1266 C 1774.550 1266, 1775 1266.801, 1775 1267.779 C 1775 1268.758, 1775.900 1270.207, 1777 1271 C 1778.100 1271.793, 1779 1273.035, 1779 1273.760 C 1779 1275.537, 1786.706 1283, 1788.540 1283 C 1789.343 1283, 1790 1283.450, 1790 1284 C 1790 1284.550, 1790.801 1285, 1791.779 1285 C 1792.758 1285, 1794.207 1285.900, 1795 1287 C 1795.847 1288.174, 1797.589 1289, 1799.221 1289 C 1800.749 1289, 1802 1289.450, 1802 1290 C 1802 1290.550, 1803.575 1291, 1805.500 1291 C 1807.425 1291, 1809 1291.450, 1809 1292 C 1809 1292.596, 1812.833 1293, 1818.500 1293 C 1824.167 1293, 1828 1292.596, 1828 1292 C 1828 1291.450, 1829.800 1291, 1832 1291 C 1834.200 1291, 1836 1290.550, 1836 1290 C 1836 1289.450, 1837.350 1289, 1839 1289 C 1840.650 1289, 1842 1288.550, 1842 1288 C 1842 1287.450, 1842.576 1287, 1843.279 1287 C 1843.983 1287, 1845.207 1286.100, 1846 1285 C 1846.793 1283.900, 1848.036 1283, 1848.763 1283 C 1849.490 1283, 1850.755 1282.438, 1851.574 1281.750 C 1857.457 1276.812, 1860.760 1273.094, 1861.350 1270.741 C 1861.729 1269.233, 1862.480 1268, 1863.019 1268 C 1863.559 1268, 1864 1267.100, 1864 1266 C 1864 1264.900, 1864.450 1264, 1865 1264 C 1865.550 1264, 1866 1263.325, 1866 1262.500 C 1866 1261.675, 1866.450 1261, 1867 1261 C 1867.550 1261, 1868 1259.650, 1868 1258 C 1868 1256.350, 1868.450 1255, 1869 1255 C 1869.550 1255, 1870 1253.650, 1870 1252 C 1870 1250.350, 1870.450 1249, 1871 1249 C 1871.550 1249, 1872 1247.425, 1872 1245.500 C 1872 1243.575, 1872.450 1242, 1873 1242 C 1873.635 1242, 1874 1234.333, 1874 1221 C 1874 1207.667, 1873.635 1200, 1873 1200 C 1872.450 1200, 1872 1198.200, 1872 1196 C 1872 1193.800, 1871.550 1192, 1871 1192 C 1870.450 1192, 1870 1190.425, 1870 1188.500 C 1870 1186.575, 1869.550 1185, 1869 1185 C 1868.450 1185, 1868 1184.100, 1868 1183 C 1868 1181.900, 1867.550 1181, 1867 1181 C 1866.450 1181, 1866 1180.100, 1866 1179 C 1866 1177.900, 1865.550 1177, 1865 1177 C 1864.450 1177, 1864 1176.100, 1864 1175 C 1864 1173.900, 1863.550 1173, 1863 1173 C 1862.450 1173, 1862 1172.118, 1862 1171.039 C 1862 1169.961, 1861.298 1168.499, 1860.440 1167.789 C 1859.581 1167.080, 1856.441 1164.138, 1853.461 1161.250 C 1850.482 1158.362, 1847.359 1156, 1846.522 1156 C 1845.685 1156, 1845 1155.550, 1845 1155 C 1845 1154.450, 1844.325 1154, 1843.500 1154 C 1842.675 1154, 1842 1153.550, 1842 1153 C 1842 1152.450, 1841.100 1152, 1840 1152 C 1838.900 1152, 1838 1151.550, 1838 1151 C 1838 1150.450, 1836.650 1150, 1835 1150 C 1833.350 1150, 1832 1149.550, 1832 1149 C 1832 1148.387, 1827.167 1148, 1819.500 1148 C 1811.833 1148, 1807 1148.387, 1807 1149 M 48 1181.500 L 48 1213 67 1213 C 79 1213, 86 1212.632, 86 1212 C 86 1211.450, 87.125 1211, 88.500 1211 C 89.875 1211, 91 1210.550, 91 1210 C 91 1209.450, 91.900 1209, 93 1209 C 94.100 1209, 95 1208.550, 95 1208 C 95 1207.450, 95.707 1207, 96.571 1207 C 97.436 1207, 98.731 1206.438, 99.449 1205.750 C 100.167 1205.063, 101.710 1203.838, 102.877 1203.029 C 104.045 1202.220, 105 1200.795, 105 1199.863 C 105 1198.930, 105.562 1197.979, 106.250 1197.750 C 107.178 1197.441, 107.500 1193.378, 107.500 1182.001 C 107.500 1170.623, 107.178 1166.560, 106.250 1166.250 C 105.562 1166.021, 105 1165.184, 105 1164.390 C 105 1162.468, 96.464 1154, 94.526 1154 C 93.687 1154, 93 1153.550, 93 1153 C 93 1152.450, 91.875 1152, 90.500 1152 C 89.125 1152, 88 1151.550, 88 1151 C 88 1150.367, 80.667 1150, 68 1150 L 48 1150 48 1181.500 M 479 1219.500 L 479 1289 497 1289 C 508.333 1289, 515 1288.630, 515 1288 C 515 1287.450, 516.800 1287, 519 1287 C 521.200 1287, 523 1286.550, 523 1286 C 523 1285.450, 523.675 1285, 524.500 1285 C 525.325 1285, 526 1284.550, 526 1284 C 526 1283.450, 526.900 1283, 528 1283 C 529.100 1283, 530 1282.600, 530 1282.111 C 530 1281.623, 531.642 1280.915, 533.649 1280.538 C 537.116 1279.888, 538.189 1278.983, 546.990 1269.286 C 548.096 1268.068, 549 1266.380, 549 1265.536 C 549 1264.691, 549.450 1264, 550 1264 C 550.550 1264, 551 1263.325, 551 1262.500 C 551 1261.675, 551.450 1261, 552 1261 C 552.550 1261, 553 1260.100, 553 1259 C 553 1257.900, 553.450 1257, 554 1257 C 554.550 1257, 555 1256.100, 555 1255 C 555 1253.900, 555.450 1253, 556 1253 C 556.550 1253, 557 1251.650, 557 1250 C 557 1248.350, 557.450 1247, 558 1247 C 558.550 1247, 559 1245.425, 559 1243.500 C 559 1241.575, 559.450 1240, 560 1240 C 560.633 1240, 561 1232.667, 561 1220 C 561 1207.333, 560.633 1200, 560 1200 C 559.450 1200, 559 1198.200, 559 1196 C 559 1193.800, 558.550 1192, 558 1192 C 557.450 1192, 557 1190.650, 557 1189 C 557 1187.350, 556.550 1186, 556 1186 C 555.450 1186, 555 1185.325, 555 1184.500 C 555 1183.675, 554.550 1183, 554 1183 C 553.450 1183, 553 1182.100, 553 1181 C 553 1179.900, 552.550 1179, 552 1179 C 551.450 1179, 551 1178.199, 551 1177.221 C 551 1176.242, 550.100 1174.793, 549 1174 C 547.900 1173.207, 547 1171.948, 547 1171.202 C 547 1169.442, 541.558 1164, 539.798 1164 C 539.052 1164, 537.793 1163.100, 537 1162 C 536.207 1160.900, 534.758 1160, 533.779 1160 C 532.801 1160, 532 1159.550, 532 1159 C 532 1158.450, 531.100 1158, 530 1158 C 528.900 1158, 528 1157.550, 528 1157 C 528 1156.450, 527.325 1156, 526.500 1156 C 525.675 1156, 525 1155.550, 525 1155 C 525 1154.450, 523.650 1154, 522 1154 C 520.350 1154, 519 1153.550, 519 1153 C 519 1152.436, 516.167 1152, 512.500 1152 C 508.833 1152, 506 1151.564, 506 1151 C 506 1150.383, 500.833 1150, 492.500 1150 L 479 1150 479 1219.500 M 834 1219.500 L 834 1289 852 1289 C 863.333 1289, 870 1288.630, 870 1288 C 870 1287.450, 871.800 1287, 874 1287 C 876.200 1287, 878 1286.550, 878 1286 C 878 1285.450, 878.900 1285, 880 1285 C 881.100 1285, 882 1284.550, 882 1284 C 882 1283.450, 882.900 1283, 884 1283 C 885.100 1283, 886 1282.586, 886 1282.079 C 886 1281.573, 887.406 1280.850, 889.126 1280.472 C 892.609 1279.707, 905 1268.035, 905 1265.519 C 905 1264.683, 905.430 1264, 905.955 1264 C 906.480 1264, 907.205 1262.425, 907.566 1260.500 C 907.927 1258.575, 908.623 1257, 909.111 1257 C 909.600 1257, 910 1256.100, 910 1255 C 910 1253.900, 910.450 1253, 911 1253 C 911.550 1253, 912 1251.650, 912 1250 C 912 1248.350, 912.450 1247, 913 1247 C 913.550 1247, 914 1245.425, 914 1243.500 C 914 1241.575, 914.450 1240, 915 1240 C 915.633 1240, 916 1232.667, 916 1220 C 916 1207.333, 915.633 1200, 915 1200 C 914.450 1200, 914 1198.200, 914 1196 C 914 1193.800, 913.550 1192, 913 1192 C 912.450 1192, 912 1190.650, 912 1189 C 912 1187.350, 911.550 1186, 911 1186 C 910.450 1186, 910 1185.325, 910 1184.500 C 910 1183.675, 909.590 1183, 909.088 1183 C 908.586 1183, 907.885 1181.281, 907.530 1179.179 C 907.175 1177.078, 906.011 1174.728, 904.942 1173.958 C 903.874 1173.188, 903 1171.857, 903 1171 C 903 1170.143, 902.045 1168.780, 900.877 1167.971 C 899.710 1167.162, 898.167 1165.938, 897.449 1165.250 C 896.731 1164.563, 895.535 1164, 894.792 1164 C 894.049 1164, 892.793 1163.100, 892 1162 C 891.207 1160.900, 889.983 1160, 889.279 1160 C 888.576 1160, 888 1159.550, 888 1159 C 888 1158.450, 887.100 1158, 886 1158 C 884.900 1158, 884 1157.550, 884 1157 C 884 1156.450, 883.100 1156, 882 1156 C 880.900 1156, 880 1155.550, 880 1155 C 880 1154.450, 878.650 1154, 877 1154 C 875.350 1154, 874 1153.550, 874 1153 C 874 1152.436, 871.167 1152, 867.500 1152 C 863.833 1152, 861 1151.564, 861 1151 C 861 1150.383, 855.833 1150, 847.500 1150 L 834 1150 834 1219.500 M 1072 1181.500 L 1072 1213 1091 1213 C 1103 1213, 1110 1212.632, 1110 1212 C 1110 1211.450, 1111.800 1211, 1114 1211 C 1116.200 1211, 1118 1210.550, 1118 1210 C 1118 1209.450, 1118.470 1209, 1119.045 1209 C 1119.620 1209, 1121.133 1207.987, 1122.407 1206.750 C 1123.682 1205.513, 1125.686 1203.838, 1126.862 1203.029 C 1128.038 1202.220, 1129 1200.758, 1129 1199.779 C 1129 1198.801, 1129.450 1198, 1130 1198 C 1130.550 1198, 1131 1197.100, 1131 1196 C 1131 1194.900, 1131.450 1194, 1132 1194 C 1132.550 1194, 1133 1191.563, 1133 1188.583 C 1133 1185.228, 1133.476 1182.945, 1134.250 1182.583 C 1135.250 1182.117, 1135.250 1181.883, 1134.250 1181.417 C 1133.457 1181.046, 1133 1178.672, 1133 1174.917 C 1133 1171.639, 1132.554 1169, 1132 1169 C 1131.450 1169, 1131 1168.325, 1131 1167.500 C 1131 1166.675, 1130.550 1166, 1130 1166 C 1129.450 1166, 1129 1165.313, 1129 1164.474 C 1129 1162.777, 1120.642 1154, 1119.026 1154 C 1118.462 1154, 1118 1153.550, 1118 1153 C 1118 1152.450, 1116.650 1152, 1115 1152 C 1113.350 1152, 1112 1151.550, 1112 1151 C 1112 1150.367, 1104.667 1150, 1092 1150 L 1072 1150 1072 1181.500 M 2346 1178.939 L 2346 1206 2371.250 1205.978 C 2393.648 1205.959, 2396.960 1205.747, 2400.571 1204.107 C 2417.364 1196.480, 2418.638 1165.476, 2402.566 1155.533 L 2397.663 1152.500 2371.832 1152.189 L 2346 1151.877 2346 1178.939 M 2561.666 1219.768 C 2555.229 1239.420, 2549.971 1255.838, 2549.982 1256.250 C 2550.013 1257.513, 2597 1257.166, 2597 1255.903 C 2597 1254.894, 2574.092 1184.794, 2573.590 1184.268 C 2573.468 1184.140, 2568.102 1200.115, 2561.666 1219.768 M 1330 1198.917 C 1330 1200.521, 1329.521 1201.993, 1328.935 1202.188 C 1328.350 1202.383, 1327.616 1204.446, 1327.304 1206.772 C 1326.992 1209.097, 1326.346 1211, 1325.868 1211 C 1325.391 1211, 1325 1212.350, 1325 1214 C 1325 1215.650, 1324.550 1217, 1324 1217 C 1323.450 1217, 1323 1218.350, 1323 1220 C 1323 1221.650, 1322.550 1223, 1322 1223 C 1321.450 1223, 1321 1224.125, 1321 1225.500 C 1321 1226.875, 1320.550 1228, 1320 1228 C 1319.450 1228, 1319 1229.350, 1319 1231 C 1319 1232.650, 1318.550 1234, 1318 1234 C 1317.450 1234, 1317 1235.350, 1317 1237 C 1317 1238.650, 1316.550 1240, 1316 1240 C 1315.450 1240, 1315 1241.125, 1315 1242.500 C 1315 1243.875, 1314.550 1245, 1314 1245 C 1313.450 1245, 1313 1246.350, 1313 1248 C 1313 1249.650, 1312.550 1251, 1312 1251 C 1311.450 1251, 1311 1252.313, 1311 1253.917 C 1311 1255.521, 1310.621 1256.983, 1310.159 1257.167 C 1309.696 1257.350, 1309.032 1258.963, 1308.684 1260.750 L 1308.050 1264 1331.525 1264 L 1355 1264 1355 1261.500 C 1355 1260.125, 1354.550 1259, 1354 1259 C 1353.450 1259, 1353 1257.650, 1353 1256 C 1353 1254.350, 1352.550 1253, 1352 1253 C 1351.450 1253, 1351 1251.650, 1351 1250 C 1351 1248.350, 1350.550 1247, 1350 1247 C 1349.450 1247, 1349 1245.875, 1349 1244.500 C 1349 1243.125, 1348.594 1242, 1348.098 1242 C 1347.602 1242, 1346.883 1239.300, 1346.500 1236 C 1346.117 1232.700, 1345.398 1230, 1344.902 1230 C 1344.406 1230, 1344 1228.650, 1344 1227 C 1344 1225.350, 1343.550 1224, 1343 1224 C 1342.450 1224, 1342 1222.875, 1342 1221.500 C 1342 1220.125, 1341.550 1219, 1341 1219 C 1340.450 1219, 1340 1218.100, 1340 1217 C 1340 1215.900, 1339.550 1215, 1339 1215 C 1338.450 1215, 1338 1213.650, 1338 1212 C 1338 1210.350, 1337.550 1209, 1337 1209 C 1336.450 1209, 1336 1207.875, 1336 1206.500 C 1336 1205.125, 1335.550 1204, 1335 1204 C 1334.450 1204, 1334 1202.843, 1334 1201.429 C 1334 1199.112, 1332.035 1196, 1330.571 1196 C 1330.257 1196, 1330 1197.313, 1330 1198.917" stroke="none" fill="#932b1c" fill-rule="evenodd"/></svg>